<?xml version="1.0" standalone="no"?>
<!DOCTYPE svg PUBLIC "-//W3C//DTD SVG 20010904//EN"
 "http://www.w3.org/TR/2001/REC-SVG-20010904/DTD/svg10.dtd">
<svg version="1.0" xmlns="http://www.w3.org/2000/svg"
 width="515.000000pt" height="515.000000pt" viewBox="0 0 515.000000 515.000000"
 preserveAspectRatio="xMidYMid meet">
<metadata>
Created by potrace 1.11, written by Peter Selinger 2001-2013
</metadata>
<g transform="translate(0.000000,515.000000) scale(0.100000,-0.100000)"
fill="#000000" stroke="none">
<path d="M442 4896 c-4 -6 -7 -1045 -8 -2309 -1 -2003 1 -2300 14 -2304 14 -6
1148 -11 1167 -6 7 2 9 474 8 1393 0 765 2 1390 7 1390 4 0 33 -37 64 -82 93
-137 166 -242 184 -263 9 -11 43 -59 74 -105 32 -47 70 -103 86 -125 40 -56
100 -142 136 -193 17 -24 42 -61 56 -82 47 -71 114 -165 132 -184 10 -11 18
-25 18 -32 0 -7 4 -14 8 -16 5 -1 28 -32 52 -68 24 -36 50 -71 57 -78 7 -7 13
-17 13 -22 0 -5 6 -15 13 -22 8 -7 27 -33 43 -57 16 -24 33 -50 38 -57 7 -9
-6 -28 -45 -66 -97 -93 -139 -190 -139 -323 0 -97 20 -170 64 -240 46 -72 93
-116 166 -154 142 -73 263 -75 407 -6 64 30 77 33 89 21 8 -8 14 -19 14 -24 0
-5 12 -25 28 -44 15 -20 44 -60 65 -89 20 -30 48 -70 62 -89 67 -95 98 -141
142 -205 86 -125 125 -175 136 -176 7 -1 263 -2 570 -3 363 -1 561 3 566 9 6
8 8 4562 2 4611 -1 7 -181 10 -596 10 -588 -1 -595 -1 -596 -21 -1 -11 -1
-608 -1 -1327 0 -741 -4 -1308 -9 -1308 -5 0 -16 12 -26 27 -10 16 -20 30 -23
33 -15 15 -70 100 -70 109 0 6 -4 11 -9 11 -5 0 -23 21 -40 48 -17 26 -59 88
-95 137 -58 82 -167 235 -223 318 -13 17 -26 37 -31 42 -4 6 -37 52 -73 103
-93 135 -119 172 -169 242 -25 34 -53 74 -62 89 -10 14 -25 37 -35 50 -21 28
-58 80 -132 188 -30 43 -69 98 -88 122 -18 24 -33 52 -33 62 0 10 15 44 33 76
29 53 32 65 32 148 0 75 -4 97 -24 135 -79 151 -198 212 -366 189 -68 -9 -60
-14 -133 90 -20 29 -46 66 -57 81 -48 67 -121 173 -131 191 -6 11 -20 30 -31
42 -10 12 -32 42 -48 67 -16 25 -31 47 -33 50 -8 11 -1213 7 -1220 -4z"/>
</g>
</svg>
