<?xml version="1.0" standalone="no"?>
<!DOCTYPE svg PUBLIC "-//W3C//DTD SVG 20010904//EN"
 "http://www.w3.org/TR/2001/REC-SVG-20010904/DTD/svg10.dtd">
<svg version="1.0" xmlns="http://www.w3.org/2000/svg"
 width="344.000000pt" height="344.000000pt" viewBox="0 0 344.000000 344.000000"
 preserveAspectRatio="xMidYMid meet">
<metadata>
Created by potrace 1.11, written by Peter Selinger 2001-2013
</metadata>
<g transform="translate(0.000000,344.000000) scale(0.100000,-0.100000)"
fill="#000000" stroke="none">
<path d="M300 2960 c0 -5 5 -10 11 -10 5 0 7 5 4 10 -3 6 -8 10 -11 10 -2 0
-4 -4 -4 -10z"/>
<path d="M328 2951 c-28 -16 -37 -44 -17 -56 6 -4 9 0 7 10 -2 10 3 20 11 23
9 3 11 0 6 -8 -5 -8 -4 -11 3 -6 6 4 9 13 5 21 -3 8 0 15 6 15 6 0 11 -5 11
-12 0 -6 3 -9 6 -5 3 3 2 12 -3 19 -7 12 -12 12 -35 -1z"/>
<path d="M490 2961 c0 -5 9 -13 20 -16 11 -3 25 -15 30 -26 10 -18 8 -19 -19
-14 -16 3 -32 2 -34 -3 -7 -11 4 -62 13 -62 9 0 25 40 22 53 -1 5 2 6 8 2 7
-4 7 -12 0 -26 -9 -15 -7 -19 5 -19 8 0 15 -4 15 -10 0 -5 -6 -7 -14 -4 -10 4
-14 -2 -12 -19 1 -22 4 -23 34 -16 17 4 32 4 32 0 0 -3 4 1 10 9 5 8 12 11 17
7 20 -20 -32 -31 -144 -29 -29 0 -53 -4 -53 -9 0 -5 21 -10 48 -10 26 -1 39
-3 29 -6 -15 -4 -15 -7 8 -25 14 -11 34 -18 45 -15 22 6 33 -5 48 -48 l10 -30
1 29 c1 27 24 55 46 55 6 0 2 -4 -7 -9 -13 -8 -15 -17 -8 -39 4 -16 5 -33 2
-37 -4 -4 -1 -4 6 0 7 5 11 15 7 23 -4 13 -3 14 9 4 8 -7 19 -10 24 -8 4 3 14
1 22 -4 13 -9 13 -10 0 -6 -8 2 -21 -3 -29 -11 -13 -13 -12 -16 4 -28 33 -25
50 -13 18 12 -17 12 -17 13 -1 14 25 0 39 -30 22 -47 -7 -8 -18 -21 -23 -31
-8 -13 -12 -14 -25 -3 -20 17 -20 10 0 -37 11 -25 18 -81 21 -172 4 -82 10
-138 17 -142 8 -5 7 -8 -1 -8 -10 0 -13 -40 -13 -166 0 -109 3 -163 10 -159 6
4 8 11 5 16 -4 5 -1 9 4 9 6 0 11 -4 11 -9 0 -8 28 -19 68 -27 25 -5 25 -14 0
-14 -13 0 -28 3 -32 7 -11 11 -48 14 -41 3 3 -6 -1 -7 -10 -4 -14 6 -15 -3
-14 -60 1 -37 5 -64 8 -59 3 5 16 8 29 7 12 -1 25 3 28 7 3 5 12 9 20 9 10 0
14 -12 14 -39 0 -41 -6 -49 -41 -56 -17 -3 -19 -2 -9 10 6 8 18 11 26 8 9 -3
14 2 14 17 0 13 -4 19 -11 14 -7 -4 -6 2 1 17 l13 23 -27 -18 c-15 -10 -30
-15 -33 -12 -9 9 -33 -14 -33 -31 0 -13 3 -13 15 -3 13 11 15 10 14 -6 -4 -35
1 -65 9 -60 4 2 9 -4 9 -15 2 -27 -4 -24 -27 14 l-20 32 -1 -350 c0 -192 -3
-363 -5 -380 -9 -67 -14 -110 -15 -117 0 -4 -9 -29 -20 -55 -16 -37 -17 -48
-7 -55 10 -7 9 -8 -2 -6 -9 2 -23 -4 -31 -12 -15 -13 -15 -16 -1 -26 12 -9 12
-13 2 -19 -9 -5 -11 -4 -6 3 5 8 1 11 -11 9 -27 -4 -63 -30 -63 -44 0 -7 -4
-13 -9 -13 -5 0 -7 -9 -4 -21 4 -12 0 -25 -8 -30 -21 -13 -32 -11 -25 6 3 8 1
15 -4 15 -6 0 -10 -7 -10 -15 0 -8 -9 -15 -20 -15 -11 0 -22 0 -25 0 -3 0 -5
3 -6 8 -2 15 -22 32 -38 31 -13 -1 -13 -2 2 -6 32 -8 19 -33 -18 -33 -19 0
-35 -3 -35 -7 0 -5 -12 -9 -26 -10 -14 0 -31 -7 -38 -13 -8 -10 -8 -11 1 -6 6
3 14 2 18 -3 3 -6 -4 -15 -15 -21 -12 -6 -20 -21 -20 -36 0 -24 2 -25 56 -23
35 2 58 7 61 16 7 18 23 17 23 -2 0 -13 32 -15 231 -15 226 0 231 0 226 20 -3
11 -1 18 4 14 5 -3 9 4 9 15 0 11 8 25 18 30 16 10 16 10 0 11 -10 0 -18 5
-18 11 0 5 4 8 9 5 5 -4 11 -1 13 6 4 10 11 10 34 -1 l29 -14 -25 -7 c-25 -6
-25 -6 -3 -12 13 -3 24 -1 26 6 3 8 12 8 35 -1 18 -6 32 -8 32 -3 0 5 -5 10
-11 12 -6 2 2 10 17 17 20 9 26 9 17 1 -17 -18 3 -65 27 -67 11 -1 20 4 20 12
0 9 -6 12 -15 9 -9 -4 -15 0 -15 9 0 8 -6 18 -12 20 -10 4 -10 6 0 6 6 1 12
13 12 29 0 21 2 24 10 12 6 -10 10 -11 10 -2 0 6 4 12 10 12 5 0 7 -7 4 -15
-4 -8 -2 -15 4 -15 5 0 12 -13 14 -29 3 -18 0 -28 -6 -24 -5 4 -7 0 -4 -9 4
-8 -2 -21 -13 -29 -10 -7 -19 -17 -19 -21 0 -14 97 -9 126 7 27 14 27 15 7 15
-13 0 -23 -6 -23 -12 0 -9 -4 -8 -10 2 -5 8 -10 20 -10 25 0 6 4 4 9 -4 6 -9
11 -10 15 -2 4 6 12 9 17 6 5 -3 21 5 36 19 28 26 63 35 63 16 0 -24 -25 -60
-49 -69 -20 -7 -11 -9 47 -9 l72 -1 0 70 c0 42 -4 68 -10 64 -5 -3 -7 -12 -4
-19 3 -8 0 -17 -6 -21 -6 -4 -11 -1 -9 6 5 40 -1 47 -36 45 -19 -2 -32 1 -29
5 3 5 0 9 -5 9 -6 0 -11 -4 -11 -10 0 -5 -5 -10 -11 -10 -19 0 -58 -47 -47
-58 5 -5 3 -9 -4 -9 -8 0 -14 13 -14 31 -1 17 1 25 3 19 3 -7 9 -13 14 -13 6
0 7 5 4 10 -3 6 -1 10 4 10 6 0 11 7 11 15 0 9 6 12 15 9 8 -4 15 -2 15 4 0 5
-21 15 -47 21 -68 18 -128 47 -169 84 -23 20 -45 31 -60 29 -12 -2 -25 2 -29
7 -3 6 -16 11 -28 11 -17 0 -19 2 -8 9 11 7 10 10 -5 14 -12 3 -9 4 8 4 15 -1
25 -3 23 -5 -7 -8 23 -32 39 -32 18 0 21 11 7 26 -28 28 -54 165 -65 333 -2
31 -10 57 -17 62 -11 7 -11 9 1 9 15 0 16 26 8 138 -1 6 -8 12 -16 12 -51 0
-119 69 -105 106 3 8 -1 22 -8 31 -8 8 -14 29 -15 45 -2 28 -1 28 17 12 17
-16 18 -15 14 7 -3 13 -12 29 -20 35 -14 10 -14 12 2 18 15 6 15 8 3 16 -11 7
-6 8 15 6 20 -1 29 -7 27 -17 -2 -8 -1 -11 3 -7 13 13 34 -19 28 -42 -6 -23
-6 -23 13 -4 19 18 28 45 15 41 -3 -1 -17 6 -30 15 -20 15 -22 20 -11 33 11
13 10 14 -4 9 -11 -4 -16 -1 -16 14 0 11 6 22 13 25 10 4 10 7 0 18 -11 11
-13 11 -13 -1 0 -7 -2 -11 -5 -9 -2 3 0 22 6 42 8 28 15 37 32 37 31 0 53 -15
37 -25 -7 -4 -16 -2 -21 6 -6 11 -9 10 -15 -5 -5 -14 -9 -15 -16 -4 -8 10 -9
10 -6 -1 4 -13 23 -16 68 -12 6 1 10 66 10 175 0 158 -2 175 -17 179 -17 4
-17 5 0 6 14 1 17 11 17 60 0 38 -4 61 -12 64 -10 4 -10 6 0 6 8 1 12 16 11
44 l-2 42 -6 -35 -7 -35 -8 30 -8 30 -13 -30 c-6 -16 -10 -34 -7 -40 3 -5 1
-7 -3 -2 -5 4 -16 1 -24 -7 -14 -13 -17 -12 -27 9 -9 19 -9 22 2 18 8 -3 14
-10 15 -17 0 -6 5 0 11 14 11 26 11 57 0 75 -4 6 0 3 9 -6 15 -17 17 -16 28 7
6 14 16 22 21 19 6 -4 7 -11 4 -17 -4 -6 -3 -8 3 -5 5 3 10 27 12 54 1 26 3
48 4 50 1 1 27 -29 57 -67 30 -37 58 -66 63 -63 4 2 7 -1 7 -7 0 -6 5 -16 10
-23 6 -7 18 -21 26 -32 9 -11 13 -15 10 -10 -2 6 -1 17 5 25 7 12 9 9 10 -10
1 -14 1 -27 1 -30 0 -3 8 -16 18 -30 l18 -24 -5 27 c-6 30 24 116 41 118 6 1
16 1 23 0 6 -1 14 18 18 41 4 24 14 54 22 68 8 14 12 17 9 7 -4 -11 -8 -31
-11 -45 -5 -25 -5 -26 4 -4 6 12 15 22 20 22 5 0 13 9 16 21 5 14 13 19 26 16
22 -6 31 4 20 21 -5 8 -13 8 -33 -2 -24 -13 -25 -12 -20 8 3 11 17 32 31 45
21 19 22 22 7 17 -19 -7 -19 -6 -1 14 22 24 74 40 133 40 27 0 42 4 42 13 0 9
3 8 9 -2 7 -11 12 -9 24 10 18 28 18 46 -3 75 -15 20 -50 29 -50 12 0 -4 9 -8
20 -8 17 0 40 -32 40 -56 0 -9 -17 -4 -36 11 -16 13 -16 14 -1 9 9 -3 17 -1
17 5 0 6 -16 11 -36 11 -28 0 -35 3 -30 15 3 8 2 24 -2 35 l-7 20 -18 -20 c-9
-11 -14 -20 -11 -20 4 0 1 -7 -6 -15 -8 -9 -9 -15 -2 -15 6 0 18 10 26 22 18
25 21 17 6 -13 -15 -27 -54 -26 -45 1 4 12 2 20 -5 20 -6 0 -8 -4 -5 -10 8
-13 -1 -13 -26 0 -13 7 -19 7 -19 0 0 -5 6 -10 14 -10 8 0 16 -6 19 -13 3 -8
-1 -14 -9 -14 -8 0 -14 5 -14 10 0 6 -3 7 -7 4 -3 -4 -13 2 -20 13 -11 15 -21
18 -40 14 -24 -6 -25 -5 -19 20 5 20 3 26 -10 26 -11 0 -14 -5 -10 -16 4 -9 1
-22 -4 -30 -9 -10 -3 -12 29 -10 37 3 40 1 29 -13 -11 -14 -11 -14 3 -3 14 10
18 10 23 -4 9 -23 8 -26 -12 -22 -11 2 -26 -3 -35 -11 -14 -11 -17 -11 -18 0
-1 8 -1 17 0 22 3 19 -18 3 -32 -24 -8 -18 -17 -27 -21 -20 -4 6 -4 16 0 22 4
7 2 10 -5 8 -7 -3 -12 -8 -12 -12 1 -4 1 -14 1 -23 0 -11 6 -15 19 -11 13 3
21 -1 24 -14 3 -11 1 -19 -4 -19 -5 0 -9 -7 -9 -16 0 -14 3 -14 15 -4 8 7 15
18 15 26 0 24 44 61 80 68 l35 6 -40 -21 c-47 -25 -103 -98 -85 -109 8 -5 9
-10 2 -14 -6 -3 -14 3 -17 14 -5 16 -10 18 -20 10 -9 -8 -15 -8 -20 0 -4 6 -1
9 7 8 7 -2 12 3 10 11 -2 8 2 17 9 21 8 6 8 9 0 14 -6 4 -11 2 -11 -3 0 -6 -4
-11 -10 -11 -5 0 -10 12 -10 27 0 21 -3 24 -12 15 -21 -21 -29 -13 -9 10 20
21 19 44 -1 32 -7 -5 -8 -2 -2 7 5 8 9 20 9 26 0 20 20 15 20 -4 0 -10 8 -18
18 -19 13 -2 14 -1 1 3 -9 3 -13 11 -10 20 3 8 6 17 6 19 0 3 6 2 13 -2 10 -6
10 -4 0 7 -17 17 -17 49 0 50 6 0 -3 5 -21 10 -20 6 -30 14 -26 21 4 7 3 8 -4
4 -19 -11 -14 5 5 19 16 12 16 14 -2 31 -18 19 -18 19 -13 -3 4 -17 2 -20 -10
-16 -10 4 -13 2 -8 -5 3 -6 -2 -16 -13 -21 -16 -9 -19 -6 -25 21 -4 21 -2 34
6 39 8 5 5 8 -8 7 -21 -2 -26 -19 -11 -34 4 -4 7 -12 7 -17 0 -6 -16 7 -36 27
-29 30 -34 40 -23 47 8 5 20 7 27 4 7 -3 10 0 7 6 -4 5 -15 7 -26 4 -32 -10
-21 5 11 17 27 9 29 12 14 23 -16 11 -16 12 0 18 10 4 14 3 11 -3 -3 -5 3 -9
12 -10 65 -2 99 2 109 15 15 20 64 20 64 0 0 -18 -21 -20 -39 -2 -11 10 -13
10 -7 0 4 -7 2 -13 -4 -13 -6 0 -8 -5 -5 -10 4 -6 16 -8 28 -4 20 6 21 5 7
-11 -9 -11 -10 -16 -2 -11 7 4 12 2 12 -6 0 -7 3 -23 6 -35 5 -17 0 -23 -29
-34 -29 -10 -33 -15 -22 -26 8 -7 21 -13 30 -13 13 0 14 -4 5 -20 -9 -16 -8
-20 5 -20 8 0 15 9 15 20 0 27 -3 36 -13 32 -5 -1 -6 2 -2 7 7 12 35 3 35 -10
0 -5 4 -9 8 -9 5 0 7 14 4 30 -4 27 -2 30 22 30 24 0 25 -2 16 -20 -8 -15 -7
-26 6 -47 14 -25 14 -26 0 -9 -9 11 -16 15 -16 9 0 -6 -9 -13 -20 -16 -11 -3
-20 -11 -19 -19 0 -8 2 -9 5 -2 7 16 46 5 40 -11 -2 -7 4 -15 14 -18 13 -3 17
0 13 9 -3 8 2 17 11 20 9 3 14 9 11 13 -2 4 3 8 11 8 8 0 17 -11 20 -24 4 -12
10 -20 15 -17 5 3 6 11 2 17 -11 18 -12 36 -2 43 5 3 9 -3 10 -13 0 -11 3 -13
6 -5 2 6 10 9 16 5 12 -7 -2 13 -41 58 -12 14 -29 34 -38 45 -11 14 -17 15
-20 7 -7 -15 -34 -17 -34 -3 0 6 -9 6 -26 0 -16 -7 -23 -7 -19 0 3 6 1 10 -5
10 -7 0 -9 14 -5 43 8 51 9 52 25 32 8 -10 9 -15 1 -15 -6 0 -11 -8 -11 -17 1
-16 2 -16 11 1 9 15 13 16 20 5 5 -8 9 -9 9 -3 0 6 -11 22 -23 35 -13 13 -29
33 -36 44 -7 13 -11 15 -10 5 3 -32 -2 -37 -33 -36 -26 1 -32 -3 -30 -16 2
-10 -2 -18 -8 -18 -5 0 -10 8 -10 19 0 10 -8 25 -17 32 -9 8 -14 9 -10 2 11
-17 -16 -22 -34 -6 -9 7 -26 16 -39 18 -12 2 -28 9 -35 15 -8 7 -63 12 -134
13 -117 2 -121 1 -115 -18 6 -17 4 -17 -15 4 -16 19 -24 22 -33 13 -9 -9 -9
-12 3 -12 8 0 20 -9 27 -21 12 -19 11 -23 -10 -37 -28 -20 -32 -19 -38 9 -5
21 -6 21 -20 3 -9 -10 -10 -15 -2 -10 8 5 12 1 12 -13 0 -22 -19 -40 -21 -19
-1 7 -5 2 -9 -12 -8 -24 -8 -24 -9 7 -1 17 -5 34 -9 37 -5 3 -7 -13 -6 -34 1
-22 -2 -37 -7 -34 -5 3 -25 0 -45 -6 -28 -9 -39 -9 -47 0 -9 9 -8 11 3 8 9 -2
16 6 18 20 2 12 -2 22 -8 22 -7 0 -8 6 -1 18 6 10 8 28 5 39 -4 15 0 22 13 25
10 3 1 5 -19 5 -20 1 -41 4 -47 8 -6 3 -11 2 -11 -4z m306 -26 c-1 -8 -8 -21
-16 -28 -10 -10 -11 -9 -4 3 5 8 9 18 10 23 3 14 4 17 8 17 2 0 3 -7 2 -15z
m114 -20 c14 -8 21 -14 15 -14 -5 0 -21 6 -35 14 -14 8 -20 14 -15 14 6 0 21
-6 35 -14z m131 -6 c6 -13 7 -19 1 -15 -6 3 -12 0 -15 -6 -2 -8 -8 -9 -13 -4
-5 5 -4 11 3 13 7 2 9 11 6 19 -8 22 5 17 18 -7z m92 -23 c4 -10 0 -14 -13
-13 -14 1 -16 4 -8 14 13 16 15 16 21 -1z m-179 -61 c-6 -16 -24 -21 -24 -7 0
11 11 22 21 22 5 0 6 -7 3 -15z m-101 -17 c20 -6 37 -15 37 -20 0 -5 -9 -4
-19 2 -27 14 -34 13 -27 -6 6 -14 4 -15 -9 -4 -13 11 -13 15 -3 22 9 7 6 8 -9
5 -12 -3 -30 2 -40 10 -17 13 -16 14 7 8 14 -3 42 -11 63 -17z m127 -8 c0 -5
-4 -10 -10 -10 -5 0 -10 5 -10 10 0 6 5 10 10 10 6 0 10 -4 10 -10z m-75 -36
c8 -3 15 -1 15 5 0 6 5 11 11 11 5 0 7 -4 4 -10 -3 -5 -1 -10 4 -10 6 0 11 -5
11 -11 0 -6 -7 -8 -16 -5 -9 4 -22 2 -28 -4 -19 -15 -81 -17 -78 -2 1 7 -8 12
-23 12 -14 0 -25 5 -25 10 0 10 43 4 65 -9 20 -11 57 -12 50 -1 -4 7 -15 10
-25 7 -13 -3 -17 0 -13 10 3 8 12 12 19 9 8 -3 21 -9 29 -12z m126 -34 c47
-46 80 -66 63 -39 -11 18 35 0 58 -23 l20 -20 -24 6 c-12 3 -17 3 -10 0 6 -3
12 -12 12 -20 0 -8 -21 1 -57 26 -64 45 -77 49 -68 20 4 -12 1 -28 -7 -37 -11
-13 -10 -18 7 -29 50 -33 58 -44 18 -24 -48 23 -64 25 -81 8 -9 -9 -9 -15 0
-27 10 -13 10 -14 -2 -3 -17 15 -34 16 -24 1 4 -7 1 -10 -7 -7 -15 5 -22 48
-7 48 5 0 6 5 3 10 -3 6 -2 10 4 10 5 0 13 -4 16 -10 10 -16 23 -11 21 7 -2
10 -16 21 -34 25 -18 5 -32 12 -32 17 0 5 -10 11 -22 14 -12 4 -19 9 -15 13 3
3 14 3 24 -1 10 -5 22 -7 27 -6 5 1 12 -3 16 -8 3 -6 15 -12 25 -14 11 -1 27
-6 35 -11 8 -4 5 1 -8 12 -15 14 -18 22 -10 25 10 3 9 9 -3 23 -20 23 -14 45
9 37 15 -6 15 -5 3 10 -27 34 -1 16 50 -33z m300 7 c-10 -9 -11 -8 -5 6 3 10
9 15 12 12 3 -3 0 -11 -7 -18z m-541 -7 c0 -5 -2 -10 -4 -10 -3 0 -8 5 -11 10
-3 6 -1 10 4 10 6 0 11 -4 11 -10z m565 -20 c3 -5 1 -10 -4 -10 -6 0 -11 5
-11 10 0 6 2 10 4 10 3 0 8 -4 11 -10z m35 6 c0 -3 -4 -8 -10 -11 -5 -3 -10
-1 -10 4 0 6 5 11 10 11 6 0 10 -2 10 -4z m-525 -124 c-3 -3 -20 9 -38 27
l-32 34 38 -28 c21 -15 35 -30 32 -33z m545 -52 c0 -10 -69 -34 -76 -27 -3 3
8 8 25 12 17 4 31 11 31 16 0 6 -4 7 -10 4 -5 -3 -15 -3 -21 1 -8 4 -7 9 2 15
14 8 49 -6 49 -21z m-660 1 c0 -6 -4 -13 -10 -16 -5 -3 -10 1 -10 9 0 9 5 16
10 16 6 0 10 -4 10 -9z m159 -23 c7 2 4 -5 -8 -17 -11 -11 -25 -21 -30 -21
-17 0 -24 22 -10 30 10 7 10 12 -1 27 -11 13 -8 12 10 -3 14 -12 31 -19 39
-16z m201 -25 c12 -32 30 -69 40 -83 19 -25 19 -25 35 -5 10 13 15 15 12 5 -2
-8 -16 -21 -30 -28 -15 -7 -27 -18 -27 -23 0 -6 -5 -7 -11 -3 -7 4 -8 20 -4
41 4 20 2 33 -3 29 -7 -4 -42 95 -42 119 0 18 12 -3 30 -52z m120 42 c0 -8 -4
-15 -10 -15 -5 0 -10 7 -10 15 0 8 5 15 10 15 6 0 10 -7 10 -15z m205 -5 c3
-5 1 -10 -4 -10 -6 0 -11 5 -11 10 0 6 2 10 4 10 3 0 8 -4 11 -10z m-116 -13
c-2 -1 -13 -9 -24 -17 -19 -14 -19 -14 -6 3 7 9 18 17 24 17 6 0 8 -1 6 -3z
m-578 -84 c13 -17 13 -17 -6 -3 -11 8 -22 16 -24 17 -2 2 0 3 6 3 6 0 17 -8
24 -17z m534 7 c-3 -5 -13 -10 -21 -10 -8 0 -12 5 -9 10 3 6 13 10 21 10 8 0
12 -4 9 -10z m-420 -11 c-7 -11 -35 -12 -35 -1 0 4 9 8 20 9 11 1 18 -2 15 -8z
m118 -12 c4 3 7 1 7 -5 0 -19 -25 -14 -46 10 l-19 21 26 -16 c14 -10 29 -14
32 -10z m44 7 c-3 -3 -12 -4 -19 -1 -8 3 -5 6 6 6 11 1 17 -2 13 -5z m-12 -24
c3 -5 1 -10 -4 -10 -6 0 -11 5 -11 10 0 6 2 10 4 10 3 0 8 -4 11 -10z m115
-94 c0 -3 -4 -8 -10 -11 -5 -3 -10 -1 -10 4 0 6 5 11 10 11 6 0 10 -2 10 -4z
m-13 -56 c0 -17 -4 -29 -9 -28 -5 2 -10 8 -10 13 0 6 -5 16 -11 24 -9 11 -9
13 0 8 6 -4 14 -3 18 3 10 16 12 12 12 -20z m-278 -42 c1 -4 -5 -5 -13 -2 -8
3 -12 13 -8 27 5 20 6 20 13 1 4 -10 8 -22 8 -26z m251 38 c0 -3 -4 -8 -10
-11 -5 -3 -10 -1 -10 4 0 6 5 11 10 11 6 0 10 -2 10 -4z m-340 -66 c0 -5 -7
-7 -15 -4 -8 4 -15 8 -15 10 0 2 7 4 15 4 8 0 15 -4 15 -10z m113 -51 c5 -3 2
-9 -5 -12 -9 -3 -14 3 -15 15 -1 11 1 16 5 12 4 -5 11 -12 15 -15z m42 -8 c-3
-6 -11 -8 -17 -5 -6 4 -5 9 3 15 16 10 23 4 14 -10z m2 -27 c-3 -3 -12 -4 -19
-1 -8 3 -5 6 6 6 11 1 17 -2 13 -5z m-107 -8 c0 -2 -7 -7 -16 -10 -8 -3 -12
-2 -9 4 6 10 25 14 25 6z m110 -20 c0 -7 -9 -16 -20 -19 -20 -5 -24 12 -5 25
15 12 25 9 25 -6z m-36 -56 c-7 -7 -18 -7 -35 0 -24 10 -23 10 4 5 17 -3 27
-1 27 6 0 7 3 9 7 6 4 -4 2 -12 -3 -17z m-89 -13 c13 4 16 3 11 -5 -11 -18
-43 -15 -50 4 -5 14 -4 15 8 5 7 -6 22 -8 31 -4z m104 -11 c-10 -11 -70 -16
-64 -6 3 5 20 10 37 10 17 0 29 -2 27 -4z m-100 -40 c11 -8 15 -8 18 2 3 6 9
12 15 12 6 0 5 -6 -2 -15 -7 -9 -19 -14 -27 -11 -7 3 -13 1 -13 -5 0 -7 13 -9
32 -7 28 4 29 4 13 -8 -10 -7 -21 -11 -26 -9 -4 3 -9 -2 -11 -10 -3 -14 -5
-14 -25 0 -13 9 -23 25 -23 36 0 10 -6 19 -12 19 -9 0 -9 3 1 9 15 10 37 5 60
-13z m91 10 c0 -2 -9 -6 -20 -9 -11 -3 -18 -1 -14 4 5 9 34 13 34 5z m-30 -56
c-6 -11 -13 -20 -16 -20 -2 0 0 9 6 20 6 11 13 20 16 20 2 0 0 -9 -6 -20z m60
-32 c0 -6 -6 -5 -15 2 -8 7 -15 14 -15 16 0 2 7 1 15 -2 8 -4 15 -11 15 -16z
m-50 -12 c0 -3 -4 -8 -10 -11 -5 -3 -10 -1 -10 4 0 6 5 11 10 11 6 0 10 -2 10
-4z m50 -32 c0 -11 -6 -13 -19 -9 -15 5 -18 2 -14 -13 6 -26 -9 -34 -65 -35
-44 0 -49 3 -43 31 0 5 7 9 15 9 8 0 12 -5 10 -11 -3 -7 11 -11 36 -12 22 0
36 2 32 5 -17 12 -6 36 16 35 12 0 22 3 22 8 0 4 2 8 5 8 3 0 5 -7 5 -16z
m-165 -56 c6 -4 2 -8 -7 -8 -10 0 -18 7 -18 17 0 9 3 12 8 7 4 -5 12 -12 17
-16z m145 -9 c0 -5 4 -8 8 -5 5 3 9 0 9 -7 0 -13 -42 -16 -54 -3 -4 4 -1 11 7
16 20 13 30 12 30 -1z m-100 -113 c0 -3 -4 -8 -10 -11 -5 -3 -10 -1 -10 4 0 6
5 11 10 11 6 0 10 -2 10 -4z m-1 -42 c-12 -15 -11 -16 9 -10 12 4 22 4 22 -1
0 -5 -11 -10 -25 -11 -36 -3 -33 29 4 37 2 1 -3 -6 -10 -15z m-29 -34 c0 -5
-2 -10 -4 -10 -3 0 -8 5 -11 10 -3 6 -1 10 4 10 6 0 11 -4 11 -10z m0 -103 c0
-4 -6 -2 -14 5 -8 7 -12 17 -9 22 5 8 23 -12 23 -27z m16 -73 c1 -9 0 -13 -4
-10 -3 4 -7 14 -8 22 -1 9 0 13 4 10 3 -4 7 -14 8 -22z m-26 -34 c6 -11 9 -20
8 -20 -2 0 -11 9 -21 20 -9 11 -13 20 -7 20 5 0 14 -9 20 -20z m-15 -31 c-4
-6 1 -17 11 -25 18 -14 18 -14 -3 -4 -23 11 -28 21 -16 33 10 11 15 8 8 -4z
m70 -31 c5 4 5 1 1 -6 -6 -10 -11 -10 -22 -1 -8 6 -14 14 -14 16 0 3 6 0 13
-6 8 -6 18 -7 22 -3z m40 -26 c-3 -3 -11 0 -18 7 -9 10 -8 11 6 5 10 -3 15 -9
12 -12z m-105 -2 c0 -5 -5 -10 -11 -10 -5 0 -7 5 -4 10 3 6 8 10 11 10 2 0 4
-4 4 -10z m22 -17 c-6 -2 -10 -9 -7 -13 3 -5 1 -11 -4 -14 -7 -5 -8 11 -2 32
1 1 7 2 14 1 9 0 9 -2 -1 -6z m62 1 c-8 -3 -9 -16 -4 -41 5 -19 6 -42 3 -49
-3 -8 0 -14 6 -14 6 0 11 7 11 15 0 8 5 15 11 15 6 0 9 -8 7 -17 -5 -26 -42
-23 -46 4 -2 12 -10 27 -18 33 -8 7 -14 17 -14 22 0 6 6 6 14 -1 12 -10 14 -9
11 6 -3 23 3 33 18 32 9 0 9 -2 1 -5z m76 -38 c0 -2 -8 -10 -17 -17 -16 -13
-17 -12 -4 4 13 16 21 21 21 13z m-50 -16 c0 -5 -2 -10 -4 -10 -3 0 -8 5 -11
10 -3 6 -1 10 4 10 6 0 11 -4 11 -10z m-48 -46 c5 -42 -22 -79 -59 -80 -20 0
-20 1 -7 20 8 11 14 32 15 46 0 23 1 23 9 5 7 -17 9 -18 14 -4 4 9 6 20 5 25
-3 16 1 24 10 24 5 0 11 -16 13 -36z m-1 -81 c-14 -24 -55 -72 -45 -53 10 20
47 70 51 70 2 0 -1 -8 -6 -17z m106 11 c-3 -3 -12 -4 -19 -1 -8 3 -5 6 6 6 11
1 17 -2 13 -5z m-157 -88 c0 -3 -4 -8 -10 -11 -5 -3 -10 -1 -10 4 0 6 5 11 10
11 6 0 10 -2 10 -4z m136 -41 c-4 -36 -12 -40 -12 -5 0 17 3 30 7 30 4 0 6
-11 5 -25z m-112 3 c-3 -4 -11 -5 -19 -1 -21 7 -19 12 4 10 11 0 18 -5 15 -9z
m56 2 c0 -5 -4 -10 -10 -10 -5 0 -10 5 -10 10 0 6 5 10 10 10 6 0 10 -4 10
-10z m-38 -32 c-7 -7 -12 -8 -12 -2 0 14 12 26 19 19 2 -3 -1 -11 -7 -17z m63
1 c-10 -15 -25 -10 -19 6 4 8 10 12 15 9 5 -3 7 -10 4 -15z m-19 -47 c-3 -3
-6 1 -6 9 0 12 -2 12 -10 -1 -14 -22 -23 -5 -15 27 l7 28 15 -28 c8 -16 12
-31 9 -35z m69 31 c-11 -10 -25 -24 -32 -32 -10 -11 -12 -10 -10 7 0 12 3 19
5 17 3 -2 14 2 26 10 28 20 35 19 11 -2z m-164 -10 c13 -16 12 -17 -3 -4 -10
7 -18 15 -18 17 0 8 8 3 21 -13z m49 -13 c0 -11 -7 -20 -16 -20 -9 0 -12 -5
-8 -12 5 -7 3 -8 -6 -3 -10 6 -9 11 6 22 16 12 17 15 4 23 -13 8 -12 10 3 10
10 0 17 -8 17 -20z m98 -30 c-7 -10 -14 -17 -17 -15 -4 4 18 35 25 35 2 0 -1
-9 -8 -20z m-163 -40 c-3 -5 -12 -10 -18 -10 -7 0 -6 4 3 10 19 12 23 12 15 0z
m40 -8 c-3 -3 -11 0 -18 7 -9 10 -8 11 6 5 10 -3 15 -9 12 -12z m55 -32 c0 -5
-2 -10 -4 -10 -3 0 -8 5 -11 10 -3 6 -1 10 4 10 6 0 11 -4 11 -10z m-96 -18
c3 -5 -1 -9 -9 -9 -8 0 -15 4 -15 9 0 4 4 8 9 8 6 0 12 -4 15 -8z m169 -32 c7
0 7 -4 -2 -9 -16 -10 -41 -4 -41 11 0 6 7 7 16 4 9 -3 21 -6 27 -6z m97 -52
c0 -5 4 -7 8 -4 4 2 14 1 22 -4 8 -5 0 -7 -23 -6 -21 2 -40 6 -44 9 -3 4 -20
7 -37 8 -29 1 -30 1 -6 8 31 9 80 2 80 -11z m-320 -43 c-19 -14 -36 -25 -39
-25 -11 1 50 50 62 50 6 0 -4 -11 -23 -25z m120 21 c0 -2 -9 -6 -20 -9 -11 -3
-18 -1 -14 4 5 9 34 13 34 5z m-56 -15 c9 -13 -5 -42 -17 -38 -6 2 -13 9 -15
15 -2 7 2 10 12 6 9 -3 16 -2 16 4 0 6 -6 13 -12 15 -10 4 -10 6 -1 6 6 1 14
-3 17 -8z m106 -1 c0 -5 -8 -10 -17 -10 -15 0 -16 2 -3 10 19 12 20 12 20 0z
m176 -17 c-10 -11 -19 -7 -22 10 -2 15 0 16 12 6 8 -6 12 -14 10 -16z m67 2
c15 -14 27 -29 27 -32 0 -4 -12 5 -27 19 -16 14 -37 28 -48 31 -20 5 -20 5 0
6 11 0 33 -10 48 -24z m-262 -25 c11 0 17 5 14 10 -3 6 2 10 11 10 10 0 15 -3
11 -6 -3 -3 -2 -17 3 -30 6 -15 6 -24 0 -24 -6 0 -10 -7 -10 -16 0 -10 -6 -14
-15 -10 -8 3 -15 1 -15 -3 0 -5 -9 -7 -20 -4 -11 3 -20 1 -20 -5 0 -18 17 -23
42 -13 15 5 30 6 39 0 10 -6 6 -9 -14 -9 -16 0 -26 -4 -22 -10 7 -12 -22 -2
-48 16 -12 7 -15 14 -8 19 16 9 13 22 -4 22 -8 0 -12 -4 -9 -9 3 -4 0 -8 -5
-8 -6 0 -11 6 -11 13 0 8 -3 8 -9 -2 -5 -8 -16 -11 -27 -7 -16 6 -16 7 2 20
10 8 22 12 27 9 4 -2 7 -1 6 4 -3 19 2 34 10 29 4 -3 17 1 27 9 10 7 21 9 22
4 2 -5 13 -9 23 -9z m75 -48 c1 -7 -7 -17 -18 -23 -19 -10 -20 -9 -13 7 5 11
8 30 8 44 -1 23 0 23 10 5 6 -11 12 -26 13 -33z m244 44 c0 -3 -4 -8 -10 -11
-5 -3 -10 -1 -10 4 0 6 5 11 10 11 6 0 10 -2 10 -4z m-565 -16 c-3 -5 -12 -10
-18 -10 -7 0 -6 4 3 10 19 12 23 12 15 0z m86 -43 c-10 -9 -11 -8 -5 6 3 10 9
15 12 12 3 -3 0 -11 -7 -18z m-98 -14 c-5 -12 -3 -14 7 -8 10 6 12 4 7 -8 -3
-9 -1 -18 6 -21 7 -3 -1 -4 -18 -3 -24 2 -29 6 -27 22 2 11 8 22 13 23 5 2 6
9 3 14 -4 7 -2 8 4 4 6 -4 8 -14 5 -23z m135 -1 c9 -7 10 -15 3 -35 -13 -34
-23 -35 -15 -2 5 19 2 25 -11 25 -12 0 -15 -5 -11 -16 6 -15 4 -15 -10 -3 -13
11 -18 11 -21 2 -6 -18 -30 -16 -30 2 0 8 4 12 8 9 5 -3 21 2 36 10 33 18 34
18 51 8z m-249 -21 c21 -12 26 -11 36 3 7 9 21 16 31 15 14 0 15 -2 4 -6 -8
-3 -23 -12 -32 -20 -9 -8 -22 -12 -27 -8 -16 9 -53 17 -80 17 -17 0 -20 2 -11
8 17 11 49 7 79 -9z m315 -18 c9 4 16 3 16 -2 0 -13 -30 -35 -37 -27 -3 3 0 6
8 6 10 1 9 3 -3 11 -10 5 -18 15 -18 22 0 8 3 7 9 -2 5 -8 16 -11 25 -8z m413
11 c-3 -3 -12 -4 -19 -1 -8 3 -5 6 6 6 11 1 17 -2 13 -5z m-802 -34 c1 -11 0
-18 -3 -15 -2 2 -11 -2 -19 -10 -21 -21 -33 -18 -34 8 0 12 -3 16 -6 10 -2 -7
-9 -13 -14 -13 -6 0 -6 8 1 19 5 11 19 19 29 18 11 0 18 -4 15 -8 -2 -4 0 -10
6 -14 10 -6 15 9 10 30 -1 6 2 7 6 2 4 -4 8 -16 9 -27z m150 -20 c3 -6 -1 -7
-9 -4 -18 7 -21 14 -7 14 6 0 13 -4 16 -10z m286 -7 c12 -16 12 -17 -2 -6 -9
7 -20 9 -24 5 -5 -4 -5 -1 -1 6 9 16 11 15 27 -5z m352 -4 c5 -3 -5 -6 -22 -5
-27 1 -29 3 -14 13 9 7 19 10 22 6 3 -4 10 -11 14 -14z m207 16 c0 -2 -10 -9
-22 -15 -22 -11 -22 -10 -4 4 21 17 26 19 26 11z m-713 -11 c-3 -3 -12 -4 -19
-1 -8 3 -5 6 6 6 11 1 17 -2 13 -5z m66 -1 c-7 -2 -19 -2 -25 0 -7 3 -2 5 12
5 14 0 19 -2 13 -5z"/>
<path d="M935 2600 c3 -5 8 -10 11 -10 2 0 4 5 4 10 0 6 -5 10 -11 10 -5 0 -7
-4 -4 -10z"/>
<path d="M793 553 c9 -2 23 -2 30 0 6 3 -1 5 -18 5 -16 0 -22 -2 -12 -5z"/>
<path d="M1020 2959 c0 -5 8 -9 19 -9 10 0 30 -9 45 -21 26 -21 38 -11 12 10
-20 17 -76 32 -76 20z"/>
<path d="M1170 2960 c0 -5 5 -10 11 -10 5 0 7 5 4 10 -3 6 -8 10 -11 10 -2 0
-4 -4 -4 -10z"/>
<path d="M2848 2964 c17 -8 15 -27 -3 -20 -8 3 -15 1 -15 -4 0 -6 12 -10 26
-10 19 0 25 5 22 17 -2 10 -12 19 -23 20 -11 2 -14 0 -7 -3z"/>
<path d="M3133 2953 c3 -13 1 -26 -4 -29 -11 -7 -2 -24 13 -24 5 0 8 6 5 14
-3 8 -2 16 3 18 5 2 2 12 -7 23 -15 20 -15 20 -10 -2z"/>
<path d="M250 2945 c0 -20 21 -30 31 -14 13 21 11 25 -11 26 -11 1 -20 -4 -20
-12z"/>
<path d="M445 2950 c4 -6 11 -8 16 -5 14 9 11 15 -7 15 -8 0 -12 -5 -9 -10z"/>
<path d="M589 2944 c-12 -15 -11 -16 8 -10 14 4 31 1 48 -10 30 -20 33 -12 5
16 -24 24 -43 25 -61 4z"/>
<path d="M2261 2944 c0 -11 3 -14 6 -6 3 7 2 16 -1 19 -3 4 -6 -2 -5 -13z"/>
<path d="M2627 2954 c-3 -3 -3 -12 0 -20 4 -12 0 -12 -21 -4 -18 6 -25 7 -21
0 3 -6 -5 -14 -19 -20 -33 -12 -33 -19 -1 -12 15 2 25 0 25 -7 0 -6 -6 -11
-12 -12 -7 0 -28 -2 -45 -4 -30 -3 -38 3 -34 28 0 4 -4 7 -10 7 -6 0 -9 -7 -6
-15 9 -23 -9 -27 -48 -11 -21 9 -35 11 -35 5 0 -6 -9 -8 -20 -4 -10 3 -28 2
-38 -4 -10 -5 -37 -11 -60 -12 -22 -2 -39 -7 -36 -11 3 -4 -2 -11 -10 -14 -9
-3 -16 -12 -16 -20 0 -8 10 -3 25 12 15 15 32 23 40 20 8 -3 22 -9 30 -12 9
-4 15 -1 15 9 0 19 40 29 58 15 8 -8 52 -11 118 -10 l105 2 54 -41 c35 -27 55
-49 55 -62 0 -17 -7 -13 -36 21 -40 47 -59 55 -42 17 10 -23 20 -29 33 -22 2
1 12 -8 20 -21 9 -12 21 -20 26 -17 5 4 9 1 9 -5 0 -6 4 -9 9 -6 9 6 21 -16
21 -37 0 -9 -3 -9 -8 -1 -9 13 -54 26 -46 13 3 -5 12 -9 20 -9 8 0 12 -5 9
-10 -4 -6 -17 -2 -35 10 -29 21 -29 21 -40 1 -8 -16 -20 -20 -59 -19 -44 2
-51 6 -72 38 -26 39 -48 60 -63 60 -6 0 -4 -5 4 -10 13 -8 12 -10 -4 -10 -16
0 -14 -5 12 -24 18 -13 45 -40 60 -59 15 -20 32 -34 39 -32 7 2 33 -5 59 -16
25 -11 48 -18 51 -15 8 8 33 -13 33 -27 0 -6 -6 -3 -12 6 -9 12 -17 14 -28 7
-13 -8 -12 -10 3 -10 10 0 15 -4 12 -10 -3 -5 2 -10 12 -10 10 0 24 -12 31
-28 20 -40 25 -60 10 -37 -17 27 -48 32 -48 8 0 -14 2 -15 9 -4 13 19 18 4 25
-76 6 -65 5 -72 -14 -86 -13 -9 -17 -17 -11 -22 15 -9 14 -35 -2 -35 -8 0 -12
-11 -11 -30 1 -17 -2 -33 -7 -36 -5 -3 -9 0 -9 6 0 6 -4 9 -10 5 -5 -3 -7 -11
-4 -18 2 -7 -4 -24 -16 -37 -11 -13 -20 -28 -21 -34 0 -6 -2 -20 -4 -31 -3
-15 2 -20 21 -21 17 -1 24 2 20 11 -3 8 1 19 9 25 8 6 11 19 8 28 -4 10 3 7
16 -8 20 -22 23 -23 19 -5 -2 12 2 19 10 17 6 -1 11 1 10 5 -1 5 2 19 6 32 6
16 11 20 16 11 5 -8 10 -3 14 14 3 14 11 26 16 26 6 0 10 8 11 18 0 11 2 12 6
4 3 -7 -2 -21 -11 -31 -8 -9 -16 -31 -18 -48 -1 -21 -8 -33 -20 -36 -14 -4
-16 -10 -9 -33 4 -16 6 -36 3 -44 -2 -9 2 -7 12 5 15 18 15 16 0 -25 -22 -64
-26 -88 -14 -95 5 -3 10 -12 10 -18 0 -8 -2 -9 -8 -1 -4 6 -18 17 -32 24 -20
10 -22 10 -13 0 8 -8 9 -20 3 -36 -7 -19 -5 -26 9 -33 10 -6 22 -7 27 -3 5 4
2 -1 -5 -11 -13 -17 -47 -25 -37 -8 3 5 -1 14 -9 21 -8 7 -13 16 -10 20 3 5 1
11 -5 15 -6 4 -8 10 -5 15 3 5 1 11 -5 15 -6 4 -9 -11 -8 -38 2 -37 5 -43 21
-39 10 2 17 1 16 -4 -1 -5 -1 -18 0 -29 1 -14 4 -16 9 -7 5 7 17 10 28 6 16
-5 17 -4 4 6 -13 9 -12 11 5 8 13 -3 20 -11 19 -26 0 -12 3 -22 8 -22 4 0 8
-4 8 -10 0 -5 -8 -7 -17 -3 -12 4 -11 0 5 -11 12 -10 22 -23 22 -29 0 -7 8
-21 17 -32 13 -16 15 -17 10 -2 -4 9 -2 17 2 17 5 0 11 -6 14 -12 2 -7 5 31 6
85 2 85 0 97 -15 97 -10 0 -14 3 -11 7 4 3 0 11 -8 17 -12 10 -12 14 0 30 8
11 15 14 15 7 0 -7 4 -10 8 -7 12 7 12 156 1 156 -6 0 -8 -4 -4 -9 3 -5 1 -13
-5 -16 -6 -4 -8 -14 -5 -24 3 -12 -1 -17 -14 -17 -23 0 -17 26 14 60 15 16 19
27 12 30 -9 3 -8 5 1 5 8 1 12 23 11 79 0 47 -3 69 -8 57 -8 -19 -8 -19 -19 2
-7 12 -12 47 -12 77 0 32 -4 56 -10 56 -10 0 -6 -82 5 -117 6 -17 -5 -43 -17
-43 -6 0 -7 11 -4 25 4 14 2 25 -3 25 -5 0 -12 -10 -14 -22 -2 -13 -5 1 -6 30
-1 38 2 51 11 46 8 -5 9 -2 5 10 -4 10 -9 36 -12 59 -5 35 -4 38 5 18 6 -13
16 -21 24 -18 20 8 39 -36 34 -82 -2 -25 1 -41 7 -41 6 0 15 48 22 118 12 121
39 217 73 264 17 23 18 31 8 53 -6 14 -15 26 -20 26 -4 1 -17 3 -28 4 -11 1
-22 4 -25 5 -14 7 -31 5 -37 -5 -5 -6 -8 -5 -8 3 0 7 7 15 15 18 12 5 13 10 4
20 -9 11 -8 14 2 14 9 1 8 4 -4 11 -9 6 -15 14 -12 20 4 5 -1 9 -10 9 -12 0
-14 -4 -5 -19 17 -33 13 -50 -11 -44 -19 5 -20 8 -7 17 13 10 14 16 3 36 -16
31 -3 72 19 64 8 -3 14 -11 12 -17 -1 -7 -1 -9 1 -4 11 18 25 5 19 -17 -3 -14
-1 -28 6 -32 7 -4 8 -3 4 4 -4 7 -3 12 2 12 6 0 8 9 5 20 -6 23 -49 53 -63 45
-6 -3 -10 1 -10 9 0 22 -39 20 -48 -1 -4 -10 -15 -19 -25 -19 -17 -2 -17 -1
-1 17 17 18 16 19 -28 19 -24 0 -47 -3 -51 -6z m63 -8 c0 -2 -8 -10 -17 -17
-16 -13 -17 -12 -4 4 13 16 21 21 21 13z m83 -8 c2 -7 1 -22 -4 -33 -8 -20 -8
-20 -8 1 -1 11 -6 25 -13 32 -9 9 -8 12 4 12 9 0 18 -6 21 -12z m-163 -28 c0
-5 -4 -10 -10 -10 -5 0 -10 5 -10 10 0 6 5 10 10 10 6 0 10 -4 10 -10z m107
-17 c5 3 10 0 10 -8 0 -8 -3 -15 -7 -15 -10 0 -30 23 -30 35 0 5 4 4 9 -4 5
-7 13 -11 18 -8z m-290 -19 c-3 -3 -12 -4 -19 -1 -8 3 -5 6 6 6 11 1 17 -2 13
-5z m343 -4 c0 -5 -5 -10 -11 -10 -5 0 -7 5 -4 10 3 6 8 10 11 10 2 0 4 -4 4
-10z m35 -110 c3 -5 1 -10 -4 -10 -6 0 -11 5 -11 10 0 6 2 10 4 10 3 0 8 -4
11 -10z m-305 -25 c0 -8 -2 -15 -4 -15 -2 0 -6 7 -10 15 -3 8 -1 15 4 15 6 0
10 -7 10 -15z m415 5 c3 -5 2 -10 -4 -10 -5 0 -13 5 -16 10 -3 6 -2 10 4 10 5
0 13 -4 16 -10z m-250 -87 c-2 -10 -4 -19 -4 -21 -1 -2 -6 0 -11 3 -8 5 -7 11
1 21 15 18 18 18 14 -3z m123 -118 c-6 -13 -15 -22 -19 -19 -5 2 -1 14 9 24
22 26 24 25 10 -5z m49 -27 c-3 -8 -6 -5 -6 6 -1 11 2 17 5 13 3 -3 4 -12 1
-19z m-97 -297 c-6 -12 -15 -21 -20 -21 -5 0 -1 13 8 30 19 32 30 24 12 -9z
m80 -1 c0 -5 -5 -10 -11 -10 -5 0 -7 5 -4 10 3 6 8 10 11 10 2 0 4 -4 4 -10z
m-160 -85 c-7 -9 -15 -13 -19 -10 -3 3 1 10 9 15 21 14 24 12 10 -5z m150 -99
c0 -2 -7 -9 -15 -16 -12 -10 -15 -10 -15 4 0 9 7 16 15 16 8 0 15 -2 15 -4z
m-76 -111 c-4 -8 -11 -15 -16 -15 -6 0 -5 6 2 15 7 8 14 15 16 15 2 0 1 -7 -2
-15z m91 -155 c3 -5 1 -10 -4 -10 -6 0 -11 5 -11 10 0 6 2 10 4 10 3 0 8 -4
11 -10z"/>
<path d="M2990 2946 c0 -12 -5 -16 -14 -13 -26 10 -26 -6 0 -20 34 -17 39 -17
23 4 -12 15 -12 16 5 10 17 -7 17 -5 5 10 -7 10 -15 20 -16 22 -2 2 -3 -4 -3
-13z"/>
<path d="M3216 2946 c3 -9 15 -16 27 -16 18 0 17 15 -1 15 -4 0 -13 4 -19 8
-9 6 -11 3 -7 -7z"/>
<path d="M2394 2939 c-3 -6 -14 -9 -23 -6 -10 2 -18 -1 -18 -8 0 -9 8 -10 31
-4 17 5 32 9 33 9 2 0 3 5 3 10 0 13 -17 13 -26 -1z"/>
<path d="M2540 2937 c0 -8 7 -14 15 -14 11 0 12 4 4 14 -6 7 -13 13 -15 13 -2
0 -4 -6 -4 -13z"/>
<path d="M2890 2943 c0 -15 19 -37 26 -31 3 4 -1 14 -10 23 -9 9 -16 13 -16 8z"/>
<path d="M395 2930 c-3 -5 -1 -10 4 -10 6 0 11 5 11 10 0 6 -2 10 -4 10 -3 0
-8 -4 -11 -10z"/>
<path d="M490 2930 c-8 -5 -18 -6 -22 -4 -4 3 -8 0 -8 -5 0 -12 16 -13 44 -2
11 4 15 10 10 14 -6 3 -16 2 -24 -3z"/>
<path d="M2515 2930 c-3 -5 -1 -10 4 -10 6 0 11 5 11 10 0 6 -2 10 -4 10 -3 0
-8 -4 -11 -10z"/>
<path d="M716 2914 c-8 -20 -4 -25 11 -16 7 4 9 13 4 21 -6 10 -10 9 -15 -5z"/>
<path d="M2331 2914 c0 -11 3 -14 6 -6 3 7 2 16 -1 19 -3 4 -6 -2 -5 -13z"/>
<path d="M2930 2921 c0 -6 4 -13 10 -16 6 -3 7 1 4 9 -7 18 -14 21 -14 7z"/>
<path d="M3027 2911 c-4 -17 -3 -21 5 -13 5 5 8 16 6 23 -3 8 -7 3 -11 -10z"/>
<path d="M425 2910 c-3 -6 1 -7 9 -4 18 7 21 14 7 14 -6 0 -13 -4 -16 -10z"/>
<path d="M595 2910 c3 -5 8 -10 11 -10 2 0 4 5 4 10 0 6 -5 10 -11 10 -5 0 -7
-4 -4 -10z"/>
<path d="M365 2900 c4 -6 11 -8 16 -5 14 9 11 15 -7 15 -8 0 -12 -5 -9 -10z"/>
<path d="M2208 2898 c5 -5 16 -8 23 -6 8 3 3 7 -10 11 -17 4 -21 3 -13 -5z"/>
<path d="M2281 2907 c2 -1 12 -9 22 -16 15 -12 17 -12 11 3 -3 9 -13 16 -22
16 -8 0 -13 -1 -11 -3z"/>
<path d="M277 2892 c-5 -7 -13 -10 -18 -7 -5 4 -9 -10 -9 -29 0 -22 5 -36 13
-36 6 0 22 -3 34 -6 19 -5 21 -2 21 30 0 29 -3 35 -13 26 -10 -9 -14 -6 -17
12 -2 16 -5 19 -11 10z m8 -32 c4 -6 10 -8 15 -5 4 3 6 -4 3 -14 -5 -19 -5
-19 -24 0 -10 10 -19 21 -19 24 0 9 19 5 25 -5z"/>
<path d="M336 2892 c-2 -4 -1 -14 5 -22 5 -8 9 -10 9 -5 1 6 7 -5 15 -23 9
-21 19 -31 26 -26 9 5 6 11 -7 22 -18 14 -18 14 4 9 19 -4 21 -3 11 9 -6 7
-15 11 -20 8 -5 -3 -9 0 -9 5 0 6 -7 11 -16 11 -8 0 -12 5 -9 10 3 6 4 10 1
10 -3 0 -7 -4 -10 -8z"/>
<path d="M3215 2887 c35 -14 39 -37 10 -54 -18 -11 -18 -12 -2 -13 10 0 25 7
33 15 12 12 12 15 2 15 -11 0 -11 2 0 9 20 12 -13 41 -46 40 l-27 -1 30 -11z"/>
<path d="M570 2865 c0 -21 5 -25 30 -25 35 0 41 23 11 40 -31 16 -41 12 -41
-15z m44 -6 c-8 -13 -21 -11 -27 5 -4 10 0 12 14 9 10 -3 16 -9 13 -14z"/>
<path d="M3125 2880 c-3 -5 -1 -10 4 -10 6 0 11 5 11 10 0 6 -2 10 -4 10 -3 0
-8 -4 -11 -10z"/>
<path d="M2900 2865 c0 -8 9 -19 19 -24 17 -10 18 -9 7 14 -12 28 -26 33 -26
10z"/>
<path d="M2968 2865 c5 -11 7 -27 4 -35 -5 -16 -3 -15 18 15 8 11 10 17 6 13
-5 -4 -15 0 -23 10 -13 16 -13 15 -5 -3z"/>
<path d="M3078 2873 c7 -3 16 -2 19 1 4 3 -2 6 -13 5 -11 0 -14 -3 -6 -6z"/>
<path d="M3163 2858 c1 -15 6 -23 11 -18 4 4 4 16 -2 26 -9 16 -10 14 -9 -8z"/>
<path d="M3215 2850 c-3 -5 -1 -10 4 -10 6 0 11 5 11 10 0 6 -2 10 -4 10 -3 0
-8 -4 -11 -10z"/>
<path d="M1121 2841 c-7 -5 -9 -11 -4 -14 5 -3 15 -2 22 2 7 5 9 11 4 14 -5 3
-15 2 -22 -2z"/>
<path d="M2265 2840 c-7 -11 -8 -11 23 -14 25 -3 30 9 6 18 -21 8 -22 8 -29
-4z"/>
<path d="M1270 2830 c-8 -5 -12 -12 -9 -15 8 -8 39 5 39 16 0 11 -11 11 -30
-1z"/>
<path d="M2190 2830 c0 -5 5 -10 10 -10 6 0 10 5 10 10 0 6 -4 10 -10 10 -5 0
-10 -4 -10 -10z"/>
<path d="M2575 2822 c27 -22 21 -53 -8 -48 -12 1 -16 1 -9 -1 7 -3 10 -8 7
-13 -3 -4 4 -6 15 -3 15 4 18 1 15 -16 -2 -12 0 -21 5 -21 6 0 8 18 5 40 -4
28 -1 40 7 40 7 0 2 9 -12 20 -31 24 -53 26 -25 2z"/>
<path d="M3136 2825 c-3 -8 -1 -15 4 -15 6 0 10 7 10 15 0 8 -2 15 -4 15 -2 0
-6 -7 -10 -15z"/>
<path d="M455 2820 c3 -5 8 -10 11 -10 2 0 4 5 4 10 0 6 -5 10 -11 10 -5 0 -7
-4 -4 -10z"/>
<path d="M2904 2816 c1 -8 5 -18 8 -22 4 -3 5 1 4 10 -1 8 -5 18 -8 22 -4 3
-5 -1 -4 -10z"/>
<path d="M3050 2819 c0 -5 5 -7 10 -4 6 3 10 8 10 11 0 2 -4 4 -10 4 -5 0 -10
-5 -10 -11z"/>
<path d="M3180 2819 c0 -5 5 -7 10 -4 6 3 10 8 10 11 0 2 -4 4 -10 4 -5 0 -10
-5 -10 -11z"/>
<path d="M1067 2809 c7 -7 15 -10 18 -7 3 3 -2 9 -12 12 -14 6 -15 5 -6 -5z"/>
<path d="M3100 2809 c0 -5 5 -7 10 -4 6 3 10 8 10 11 0 2 -4 4 -10 4 -5 0 -10
-5 -10 -11z"/>
<path d="M1200 2796 c14 -14 13 -29 -2 -20 -10 6 -10 4 0 -7 8 -9 15 -10 22
-3 14 14 3 41 -16 41 -10 0 -11 -4 -4 -11z"/>
<path d="M2310 2799 c0 -5 4 -9 9 -9 5 0 17 -3 25 -6 11 -4 15 -2 11 8 -6 15
-45 22 -45 7z"/>
<path d="M2370 2804 c0 -17 17 -36 24 -26 3 5 -1 15 -9 22 -8 7 -15 9 -15 4z"/>
<path d="M2933 2795 c0 -7 6 -11 14 -8 7 3 13 6 13 8 0 2 -6 5 -13 8 -8 3 -14
-1 -14 -8z"/>
<path d="M2971 2793 c0 -13 -7 -22 -13 -20 -7 1 -14 -8 -16 -20 -3 -17 1 -20
17 -16 12 3 18 10 14 16 -3 6 -1 7 5 3 7 -4 22 0 34 8 12 9 17 16 10 16 -7 0
-10 5 -7 10 3 6 1 10 -4 10 -6 0 -11 -7 -11 -15 0 -23 -18 -18 -23 8 l-4 22
-2 -22z"/>
<path d="M1105 2770 c3 -5 8 -10 11 -10 2 0 4 5 4 10 0 6 -5 10 -11 10 -5 0
-7 -4 -4 -10z"/>
<path d="M2410 2760 c8 -5 20 -10 25 -10 6 0 3 5 -5 10 -8 5 -19 10 -25 10 -5
0 -3 -5 5 -10z"/>
<path d="M1160 2709 c0 -5 5 -7 10 -4 6 3 10 8 10 11 0 2 -4 4 -10 4 -5 0 -10
-5 -10 -11z"/>
<path d="M2615 2711 c-3 -5 -2 -12 3 -15 5 -3 9 1 9 9 0 17 -3 19 -12 6z"/>
<path d="M1446 2665 c4 -8 11 -15 16 -15 6 0 5 6 -2 15 -7 8 -14 15 -16 15 -2
0 -1 -7 2 -15z"/>
<path d="M1195 2650 c-3 -5 -1 -10 4 -10 6 0 11 5 11 10 0 6 -2 10 -4 10 -3 0
-8 -4 -11 -10z"/>
<path d="M2575 2620 c-4 -6 -1 -18 7 -27 7 -9 12 -18 10 -20 -2 -2 2 -29 8
-61 7 -31 15 -72 19 -91 6 -32 31 -57 31 -31 0 6 -4 8 -10 5 -12 -8 -13 -3 0
29 6 16 15 24 23 20 8 -3 22 3 32 12 17 17 17 18 -1 26 -22 10 -57 66 -49 78
3 5 -4 14 -15 20 -11 6 -20 8 -20 4 0 -3 -7 -1 -15 6 -18 15 -21 37 -2 23 6
-6 21 -13 32 -17 16 -5 15 -2 -5 14 -29 22 -36 24 -45 10z m56 -58 c-9 -3 -8
-10 4 -29 9 -14 15 -27 12 -29 -2 -3 -14 11 -25 30 -22 37 -20 48 6 38 11 -4
12 -7 3 -10z"/>
<path d="M655 2600 c-6 -10 1 -14 18 -11 4 0 7 -3 7 -9 0 -5 5 -10 10 -10 16
0 11 14 -10 27 -12 8 -21 9 -25 3z"/>
<path d="M1545 2530 c-3 -5 -1 -10 4 -10 6 0 11 5 11 10 0 6 -2 10 -4 10 -3 0
-8 -4 -11 -10z"/>
<path d="M1540 2506 c0 -2 7 -7 16 -10 8 -3 12 -2 9 4 -6 10 -25 14 -25 6z"/>
<path d="M1560 2415 c0 -4 5 -15 11 -26 9 -17 4 -25 -28 -55 -21 -20 -33 -33
-27 -30 7 3 17 -1 24 -9 11 -13 10 -18 -6 -31 -15 -13 -16 -15 -2 -10 9 2 22
-1 28 -9 6 -7 22 -16 35 -19 14 -4 25 -11 25 -17 0 -6 -5 -7 -12 -2 -21 13
-76 10 -71 -4 3 -7 9 -10 14 -7 5 3 9 -2 9 -10 0 -8 9 -18 21 -21 11 -4 18 -9
16 -12 -3 -2 -20 3 -37 12 -27 14 -34 15 -41 3 -12 -19 -11 -25 6 -32 8 -3 15
-10 15 -17 0 -6 -7 -8 -16 -5 -8 3 -12 2 -9 -4 9 -14 -9 -12 -23 2 -16 16 -15
31 1 22 8 -6 8 -3 -1 9 -8 9 -21 19 -30 21 -16 5 -26 24 -47 81 l-7 20 -9 -20
c-8 -16 -8 -14 -5 10 4 24 0 32 -18 41 -18 8 -23 8 -23 -3 0 -7 5 -13 11 -13
6 0 5 -4 -3 -9 -11 -7 -10 -15 9 -41 12 -17 20 -33 17 -36 -2 -2 -12 7 -21 21
-15 23 -18 24 -32 10 -13 -13 -14 -18 -4 -31 7 -8 10 -17 7 -21 -4 -3 -2 -14
4 -24 6 -13 6 -19 -1 -19 -5 0 -10 7 -10 16 0 8 -4 13 -9 10 -5 -4 -11 -3 -14
1 -2 5 -2 2 0 -5 1 -8 3 -20 3 -28 0 -7 6 -11 14 -8 8 3 16 -2 19 -13 4 -16 5
-16 6 0 1 21 17 22 55 2 40 -21 52 -19 31 5 -17 18 -17 20 -2 14 10 -3 17 -1
17 5 0 6 -4 11 -9 11 -5 0 -11 6 -14 14 -4 10 0 12 14 9 12 -3 19 -14 19 -28
0 -12 10 -30 23 -39 15 -12 18 -18 9 -22 -6 -3 -9 -11 -6 -16 4 -7 2 -8 -4 -4
-6 4 -9 13 -5 21 3 8 0 15 -7 15 -6 0 -8 -5 -4 -12 5 -8 2 -9 -12 -4 -16 6
-16 4 4 -17 27 -29 28 -41 2 -27 -23 13 -25 3 -5 -24 8 -11 15 -25 15 -31 0
-12 -28 -14 -46 -2 -7 4 -10 -2 -7 -18 3 -13 12 -26 20 -30 13 -4 14 -3 4 9
-8 9 -8 16 -2 20 5 4 12 2 16 -4 4 -6 11 -8 16 -5 5 4 9 2 9 -3 0 -6 7 -13 16
-16 14 -6 15 -4 4 9 -12 14 -11 15 13 4 19 -9 30 -9 40 -1 7 6 24 8 37 5 16
-4 21 -3 16 6 -4 7 2 15 16 20 l23 10 -25 1 c-19 0 -22 2 -10 9 8 6 28 7 45 5
23 -4 27 -3 15 5 -10 7 -11 11 -2 11 6 0 12 5 12 11 0 6 -7 9 -15 6 -8 -4 -17
-2 -20 3 -8 13 9 20 25 10 8 -5 22 -5 32 1 13 7 22 6 32 -3 11 -11 8 -17 -20
-36 -19 -12 -33 -28 -31 -35 1 -6 -8 -13 -20 -15 -13 -2 -23 -8 -23 -13 0 -6
-16 -9 -34 -8 -19 2 -38 0 -42 -4 -4 -4 -17 -7 -28 -7 -16 -1 -12 -5 13 -16
48 -21 34 -26 -27 -10 -55 15 -63 3 -9 -14 31 -9 30 -10 -8 -4 -22 3 -52 5
-67 5 -15 -1 -29 3 -33 9 -3 5 -14 10 -23 9 -14 0 -13 -2 3 -9 18 -8 17 -9 -7
-9 -19 -1 -28 -6 -28 -17 0 -10 6 -14 15 -10 16 6 16 6 20 -42 2 -35 32 -75
48 -65 6 3 7 1 3 -5 -6 -10 133 -188 161 -205 7 -4 13 -14 13 -21 0 -7 9 -21
20 -31 15 -14 23 -15 33 -6 15 12 27 5 27 -16 0 -10 -6 -12 -22 -7 -20 6 -20
5 5 -22 14 -16 42 -47 62 -69 20 -22 35 -33 33 -25 -2 8 2 14 7 13 6 -1 12 7
12 18 2 16 -3 19 -20 14 -17 -5 -19 -4 -7 4 12 9 13 14 2 31 -10 16 -10 20 0
18 7 -2 12 2 11 8 -4 22 29 10 40 -15 6 -14 18 -30 25 -35 12 -7 12 -10 1 -17
-10 -6 -6 -9 13 -9 25 0 26 1 15 35 -6 19 -16 35 -23 35 -7 0 -16 5 -19 10
-11 17 14 11 34 -9 11 -11 21 -18 23 -16 2 2 4 -12 5 -31 2 -24 -2 -36 -16
-44 -13 -7 -22 -7 -26 0 -3 5 -15 10 -26 10 -11 0 -17 -5 -14 -10 4 -6 10 -8
14 -6 4 3 8 -1 8 -9 0 -17 -32 -29 -48 -19 -8 4 -9 3 -5 -4 4 -7 14 -12 22
-12 8 0 12 -5 9 -10 -3 -6 0 -17 8 -24 11 -12 17 -12 28 -3 10 10 10 8 -1 -6
-17 -24 1 -45 20 -22 18 22 43 20 35 -4 -5 -18 -3 -18 19 -8 16 7 20 13 12 15
-13 3 -30 31 -23 38 2 2 15 -8 31 -22 33 -31 40 -28 21 9 -14 28 -5 46 12 24
22 -28 21 -56 -3 -72 -28 -18 -38 -19 -28 -2 5 9 4 9 -7 -1 -11 -10 -10 -16 9
-34 18 -19 24 -20 34 -9 11 11 10 13 -4 8 -40 -14 -25 18 21 42 19 11 22 11
16 0 -6 -9 -3 -11 9 -6 12 5 16 3 13 -5 -2 -7 -11 -12 -18 -10 -8 2 -11 0 -7
-4 4 -4 26 -7 48 -8 40 -1 40 0 21 16 -29 23 -26 29 9 16 31 -10 108 -113 95
-126 -3 -4 -9 -1 -14 6 -4 7 -12 -2 -20 -26 -7 -20 -23 -50 -36 -67 -12 -16
-24 -37 -27 -45 -8 -24 30 -70 60 -71 17 -1 21 -3 10 -6 -19 -5 -25 -23 -8
-23 14 0 70 55 70 69 0 6 7 11 16 11 11 0 15 -6 11 -20 -3 -11 -1 -20 5 -20 5
0 6 -4 3 -10 -6 -10 6 -14 35 -11 13 2 13 0 1 -8 -8 -5 -20 -7 -28 -4 -7 3
-14 -2 -14 -11 -3 -32 -4 -36 -20 -54 -15 -18 -14 -22 15 -60 36 -47 47 -54
67 -40 11 8 10 9 -3 4 -10 -3 -18 -1 -18 4 0 6 5 10 10 10 6 0 10 7 10 15 0 8
5 15 11 15 6 0 9 -7 5 -15 -3 -8 -1 -15 4 -15 14 0 12 24 -2 38 -6 6 -8 15 -4
19 4 4 11 1 16 -6 4 -8 15 -11 24 -8 14 5 15 3 6 -13 -7 -12 -7 -21 0 -25 5
-3 10 1 10 10 0 9 5 13 11 10 6 -4 8 -13 5 -21 -6 -17 -5 -17 29 -4 20 7 35 6
63 -7 20 -9 42 -17 47 -17 6 -1 13 -5 18 -11 4 -6 15 -1 27 14 22 26 26 41 9
41 -5 0 -7 -5 -4 -10 3 -6 1 -10 -4 -10 -6 0 -11 3 -11 8 0 13 47 62 53 55 4
-3 -1 -12 -11 -19 -9 -7 -13 -16 -9 -20 4 -5 12 -2 16 5 5 8 11 9 15 3 3 -6 1
-12 -6 -14 -15 -5 -1 -28 18 -28 8 0 12 4 9 10 -4 6 4 9 19 8 24 -2 25 -5 20
-48 -5 -35 -3 -42 6 -30 9 12 11 12 8 1 -2 -8 -14 -16 -27 -18 -17 -2 -22 1
-17 12 3 8 0 15 -5 15 -7 0 -9 -11 -7 -25 3 -14 1 -23 -6 -22 -6 1 -10 -2 -9
-8 2 -12 -62 -14 -73 -2 -4 4 -18 0 -31 -8 -21 -14 -27 -12 -24 8 1 5 -3 6 -8
3 -13 -8 -42 4 -36 15 3 4 13 6 23 3 14 -5 14 -4 2 4 -10 8 -18 8 -27 0 -9 -7
-17 -7 -26 1 -8 6 -17 8 -20 4 -4 -3 -7 -1 -7 5 0 7 5 12 12 12 21 0 0 12 -26
14 -15 2 -35 11 -46 21 -12 10 -20 13 -20 7 0 -7 5 -12 11 -12 5 0 7 -4 4 -10
-3 -5 3 -10 14 -10 21 0 27 -11 14 -24 -19 -19 -5 -48 73 -142 47 -57 89 -104
94 -104 5 0 12 5 15 11 4 6 14 7 24 4 22 -9 181 -14 176 -5 -2 3 18 5 45 2
l49 -3 0 199 0 200 -22 -4 c-21 -4 -21 -4 -1 5 29 13 34 107 7 114 -15 4 -15
5 -2 6 14 1 16 21 18 144 1 97 -2 137 -9 127 -7 -12 -10 -12 -10 -1 0 8 -6 11
-16 7 -11 -4 -22 1 -31 14 -14 20 -40 29 -28 10 3 -5 -7 -5 -25 1 -40 14 -38
17 10 15 22 -1 41 0 43 3 2 3 2 1 1 -6 -4 -14 12 -27 19 -16 2 5 2 1 0 -7 -2
-11 0 -11 11 3 7 9 18 17 25 17 8 0 11 42 11 140 l0 141 -22 -21 c-12 -11 -24
-18 -26 -15 -3 3 7 14 21 26 25 19 27 26 27 99 0 61 -4 81 -17 91 -11 10 -14
10 -9 2 4 -8 2 -13 -6 -13 -19 1 -78 57 -78 75 0 8 -6 14 -12 12 -7 -1 -13 7
-12 19 0 11 -6 21 -14 21 -9 0 -12 -8 -9 -24 3 -15 -1 -23 -9 -23 -8 0 -11 6
-7 17 4 10 2 14 -4 10 -16 -10 -19 9 -18 115 1 58 7 103 14 112 14 17 1 28
-19 16 -11 -7 -15 -31 -16 -90 0 -44 3 -80 8 -80 4 0 8 -5 8 -11 0 -5 -4 -8
-9 -5 -4 3 -9 -61 -9 -142 -1 -131 0 -145 13 -128 12 16 15 17 15 4 0 -9 -7
-18 -15 -22 -11 -4 -15 -20 -15 -56 0 -45 2 -50 22 -50 l21 0 -21 -19 c-26
-21 -28 -53 -7 -75 18 -18 19 -27 3 -23 -8 1 -13 -10 -14 -31 -1 -23 3 -31 12
-28 6 2 20 -1 30 -8 15 -11 13 -12 -16 -8 -23 3 -31 1 -26 -7 4 -6 3 -11 -2
-11 -6 0 -13 7 -16 16 -3 8 -11 12 -17 8 -8 -4 -9 -3 -5 4 4 7 -11 30 -34 54
-22 24 -37 35 -34 26 3 -10 1 -18 -5 -18 -6 0 -11 -5 -11 -11 0 -5 6 -7 13 -3
6 4 9 4 5 -1 -4 -4 -4 -13 2 -19 5 -7 5 -17 0 -26 -8 -12 -10 -11 -10 7 0 12
-12 31 -27 42 -16 12 -21 19 -12 16 12 -5 15 3 16 37 1 43 1 43 -6 8 -6 -26
-9 -31 -14 -17 -15 37 -16 47 -6 52 5 4 6 11 3 17 -4 6 -10 5 -16 -3 -7 -10
-8 -8 -3 8 3 12 1 24 -5 28 -5 3 -10 1 -10 -5 0 -6 -5 -8 -10 -5 -6 4 -8 11
-4 16 3 5 -6 26 -21 45 -22 28 -30 33 -37 23 -7 -11 -8 -9 -4 4 7 23 -39 84
-70 91 -16 4 -22 12 -19 26 2 11 0 18 -5 15 -5 -3 -11 3 -14 13 -7 21 -36 26
-36 6 0 -7 -4 -16 -10 -19 -5 -3 -7 0 -4 8 4 10 -3 13 -26 9 -18 -2 -40 2 -55
12 -13 9 -31 16 -39 16 -12 0 -15 8 -12 32 2 18 9 34 15 36 6 2 9 8 6 13 -4 5
-17 1 -31 -7 -13 -9 -27 -14 -31 -10 -3 3 -13 0 -22 -7 -14 -10 -14 -10 -3 5
10 13 10 17 0 21 -9 4 -9 6 -1 6 6 1 15 -4 18 -10 5 -7 13 -5 24 6 9 8 27 24
40 35 29 24 21 26 -21 4 -28 -14 -30 -14 -25 0 3 8 1 18 -5 22 -8 5 -9 -3 -5
-27 4 -21 4 -29 -2 -20 -5 7 -14 10 -20 7 -6 -4 -11 -3 -11 3 0 5 4 13 10 16
6 4 4 19 -5 42 -18 41 -18 46 -6 38 11 -6 42 35 35 47 -6 10 -24 11 -23 1 5
-30 -21 -47 -35 -24 -9 14 4 41 20 41 8 0 14 4 14 9 0 13 -26 32 -34 24 -4 -4
-4 0 -1 9 9 23 -24 32 -46 12 -11 -10 -19 -14 -19 -9 0 4 -7 2 -15 -5 -20 -16
-46 -6 -38 16 5 13 2 15 -16 9 -21 -6 -22 -5 -10 17 7 14 14 18 17 10 2 -6 10
-12 18 -12 8 0 14 -7 14 -16 0 -14 3 -14 15 -4 22 18 19 29 -10 36 -14 3 -25
10 -25 16 0 5 -5 6 -11 2 -8 -5 -8 -1 0 14 6 12 18 25 26 30 14 7 13 11 -5 27
-18 16 -20 16 -20 2 0 -16 -34 -38 -87 -57 -28 -10 -28 -10 -5 6 31 23 30 46
-3 34 -16 -6 -25 -6 -25 0 0 5 -13 7 -30 4 -20 -4 -30 -2 -30 5 0 7 4 10 9 7
13 -8 42 4 35 15 -8 14 46 31 84 27 17 -2 32 -1 32 2 0 17 -28 30 -63 30 -22
0 -36 4 -32 10 4 6 -1 7 -11 3 -14 -5 -16 -1 -12 30 3 29 1 34 -9 25 -17 -13
-17 4 0 21 10 11 8 11 -11 2 -12 -7 -32 -9 -44 -5 -13 4 -18 2 -14 -4 10 -16
-13 -25 -29 -12 -12 10 -15 9 -15 -5 0 -10 -3 -16 -6 -12 -3 3 -3 16 1 28 7
20 8 20 17 6 5 -10 14 -17 20 -17 6 0 4 8 -5 18 -8 9 -19 29 -22 45 -6 24 -25
48 -25 32z m118 -130 c-2 -5 -7 -9 -13 -7 -5 1 -2 -4 8 -11 35 -28 4 -53 -33
-26 -13 9 -12 10 2 5 11 -3 15 -1 12 8 -6 17 -34 16 -34 -1 0 -7 -7 -13 -15
-13 -8 0 -15 6 -15 14 0 8 -4 18 -10 21 -6 4 -7 -1 -3 -12 5 -14 3 -15 -7 -6
-20 18 -2 33 35 29 19 -3 37 0 41 5 8 13 36 7 32 -6z m37 -45 c3 -5 1 -10 -4
-10 -6 0 -11 5 -11 10 0 6 2 10 4 10 3 0 8 -4 11 -10z m-30 -130 c3 -5 -3 -10
-14 -10 -12 0 -21 -4 -21 -10 0 -5 -7 -10 -16 -10 -8 0 -12 5 -9 10 3 6 -2 10
-12 11 -13 1 -11 3 7 9 36 11 58 11 65 0z m-150 -30 c3 -5 1 -10 -4 -10 -6 0
-11 5 -11 10 0 6 2 10 4 10 3 0 8 -4 11 -10z m45 -12 c0 -4 -4 -8 -9 -8 -6 0
-12 4 -15 8 -3 5 1 9 9 9 8 0 15 -4 15 -9z m117 -4 c-3 -3 -12 -4 -19 -1 -8 3
-5 6 6 6 11 1 17 -2 13 -5z m-187 -40 c0 -8 -4 -12 -10 -9 -5 3 -10 10 -10 16
0 5 5 9 10 9 6 0 10 -7 10 -16z m435 -11 c0 -18 -8 -33 -23 -41 -12 -7 -20
-17 -17 -22 4 -6 2 -10 -3 -10 -16 0 -22 43 -9 59 10 12 9 13 -11 2 -33 -17
-38 -7 -7 13 14 9 25 12 25 6 0 -16 27 -12 34 5 8 22 12 18 11 -12z m-146 -7
c-2 -2 -20 -7 -39 -11 l-35 -7 35 20 c19 11 37 15 39 10 1 -5 1 -11 0 -12z
m-174 4 c-3 -5 -11 -10 -16 -10 -6 0 -7 5 -4 10 3 6 11 10 16 10 6 0 7 -4 4
-10z m205 -10 c-14 -11 -30 -20 -36 -20 -7 0 -14 -10 -17 -22 -5 -16 -9 -19
-19 -11 -7 6 -26 13 -41 17 -25 6 -30 26 -6 26 6 0 7 -5 3 -11 -10 -17 55 -1
91 22 39 25 57 24 25 -1z m15 -30 c-4 -11 -2 -20 4 -20 6 0 11 7 11 16 0 8 5
12 11 8 8 -4 8 -9 0 -17 -16 -16 -13 -47 4 -47 8 0 15 -5 15 -10 0 -7 -6 -7
-20 0 -11 6 -20 17 -20 24 0 29 -30 26 -45 -4 -12 -24 -22 -30 -46 -30 -25 0
-29 -3 -20 -13 13 -16 5 -27 -21 -27 -10 0 -27 -5 -37 -12 -19 -12 -51 -5 -51
11 0 5 9 12 19 16 11 3 22 13 25 21 4 11 2 15 -8 11 -10 -4 -13 -1 -9 9 7 18
13 18 27 -2 10 -14 15 -13 39 6 15 12 30 19 35 17 4 -3 16 1 27 9 10 8 15 14
9 14 -11 0 37 39 49 40 5 0 5 -9 2 -20z m-118 -36 c-3 -3 -12 -4 -19 -1 -8 3
-5 6 6 6 11 1 17 -2 13 -5z m-92 -24 c-3 -5 -13 -10 -21 -10 -8 0 -14 5 -14
10 0 6 9 10 21 10 11 0 17 -4 14 -10z m-155 -50 c0 -5 -8 -10 -17 -10 -15 0
-16 2 -3 10 19 12 20 12 20 0z m140 -19 c0 -5 -16 -9 -35 -9 -19 0 -35 4 -35
9 0 5 16 9 35 9 19 0 35 -4 35 -9z m274 -13 c5 4 2 -8 -6 -27 -17 -42 -66 -63
-63 -28 1 11 12 25 24 31 13 6 20 15 16 24 -4 12 -2 12 8 4 8 -7 17 -8 21 -4z
m46 -58 c0 -5 -5 -10 -11 -10 -5 0 -7 5 -4 10 3 6 8 10 11 10 2 0 4 -4 4 -10z
m68 -27 c-6 -7 -12 -13 -13 -13 -2 0 -5 6 -8 13 -3 7 3 13 14 13 13 0 15 -3 7
-13z m639 -15 c-3 -7 -5 -2 -5 12 0 14 2 19 5 13 2 -7 2 -19 0 -25z m-907 -4
c20 -18 38 -25 55 -22 21 4 23 2 15 -13 -7 -12 -6 -20 2 -25 7 -4 8 -3 4 4 -4
7 -3 12 2 12 6 0 12 -6 15 -13 3 -9 -4 -13 -23 -12 -21 0 -26 4 -22 19 3 12 1
17 -6 12 -6 -3 -21 4 -34 17 -13 13 -33 29 -43 35 -11 6 -15 12 -8 12 6 0 25
-12 43 -26z m-240 6 c0 -5 -5 -10 -11 -10 -5 0 -7 5 -4 10 3 6 8 10 11 10 2 0
4 -4 4 -10z m55 0 c4 -6 -6 -10 -22 -9 -25 0 -26 1 -8 9 11 5 21 9 22 9 1 1 5
-3 8 -9z m35 6 c0 -3 -4 -8 -10 -11 -5 -3 -10 -1 -10 4 0 6 5 11 10 11 6 0 10
-2 10 -4z m488 -56 c3 -9 -4 -11 -27 -8 -23 3 -31 1 -31 -11 0 -14 -2 -14 -10
-1 -5 8 -5 19 0 25 12 15 63 11 68 -5z m-349 -18 c-7 -20 -16 -28 -32 -28 -16
1 -22 -5 -22 -21 0 -11 -4 -25 -8 -30 -5 -4 -7 8 -5 27 3 30 7 35 31 38 19 2
27 9 27 23 0 10 4 19 9 19 6 0 6 -11 0 -28z m521 -5 c0 -4 -6 -2 -14 5 -8 7
-12 17 -9 22 5 8 23 -12 23 -27z m-636 17 c20 -8 21 -20 2 -27 -11 -4 -13 -1
-9 10 4 11 2 14 -8 11 -8 -3 -13 -11 -11 -17 1 -7 -2 -10 -8 -6 -5 3 -10 1
-10 -4 0 -6 5 -11 12 -11 6 0 9 -2 6 -5 -3 -3 -12 -3 -21 1 -15 5 -15 8 0 30
16 25 22 28 47 18z m493 -20 c-3 -3 -12 -4 -19 -1 -8 3 -5 6 6 6 11 1 17 -2
13 -5z m593 -14 c13 -8 13 -10 -2 -10 -9 0 -20 5 -23 10 -8 13 5 13 25 0z m45
-8 c-3 -3 -11 0 -18 7 -9 10 -8 11 6 5 10 -3 15 -9 12 -12z m-977 -18 c2 -1
-4 -4 -13 -8 -11 -4 -14 -2 -10 7 4 6 1 5 -7 -3 -12 -15 -48 -16 -48 -2 0 15
45 28 60 18 8 -6 16 -11 18 -12z m78 -2 c-9 -9 -37 8 -31 18 5 8 11 7 21 -1 8
-6 12 -14 10 -17z m49 18 c-3 -5 -14 -10 -23 -10 -15 0 -15 2 -2 10 20 13 33
13 25 0z m401 -22 c5 -7 3 -8 -6 -3 -10 6 -11 4 -5 -11 9 -19 9 -43 3 -122 -2
-27 1 -47 9 -54 7 -6 13 -16 13 -22 0 -6 -5 -4 -10 4 -9 13 -10 13 -10 0 -1
-12 -3 -11 -14 3 -8 10 -17 14 -20 9 -4 -7 -14 -8 -58 -3 -4 1 -5 7 -2 15 5
13 62 43 75 39 3 -1 6 5 6 13 0 16 -13 19 -22 4 -12 -20 -103 -57 -119 -48
-11 6 -16 5 -16 -5 0 -8 -7 -18 -16 -21 -16 -6 -31 2 -62 32 -8 7 -18 10 -23
7 -5 -4 -6 0 -3 8 3 8 -1 31 -10 51 -15 35 -15 35 7 23 12 -7 25 -16 28 -21 4
-4 9 -3 13 2 3 6 -4 18 -16 26 -27 19 -19 21 17 4 18 -8 29 -8 36 -1 6 6 30 8
53 6 43 -5 96 13 112 38 4 7 3 9 -4 6 -5 -4 -17 -4 -26 -1 -14 5 -13 9 6 29
23 24 47 21 64 -7z m-678 2 c-2 -6 11 -18 27 -28 17 -9 32 -18 34 -19 7 -4 -2
-10 -29 -18 -22 -7 -23 -6 -12 8 11 13 10 17 -6 26 -11 6 -22 7 -26 4 -14 -14
-32 -10 -33 8 -1 11 3 19 8 19 6 0 7 -4 4 -10 -3 -5 1 -10 9 -10 9 0 15 3 15
8 -2 12 1 22 6 22 3 0 4 -5 3 -10z m205 -31 c-8 -8 -13 -7 -18 2 -5 8 -4 10 3
5 7 -4 12 -2 12 5 0 7 3 9 7 6 4 -4 2 -12 -4 -18z m-102 -5 c7 -8 20 -13 30
-11 9 3 23 1 30 -4 10 -6 4 -9 -18 -9 -20 0 -41 8 -53 20 -11 11 -16 20 -11
20 5 0 14 -7 22 -16z m1073 0 c7 -17 -6 -25 -24 -14 -7 4 -29 7 -49 4 -20 -2
-27 -1 -16 2 11 3 24 9 28 14 14 12 55 9 61 -6z m-1169 -14 c-3 -5 -11 -10
-16 -10 -6 0 -7 5 -4 10 3 6 11 10 16 10 6 0 7 -4 4 -10z m239 1 c4 -5 -3 -7
-14 -4 -23 6 -26 13 -6 13 8 0 17 -4 20 -9z m481 -39 c3 -7 3 -14 2 -16 -1 -1
4 -10 12 -20 12 -14 12 -16 -3 -10 -9 3 -16 1 -16 -6 0 -6 -5 -8 -11 -4 -6 4
-9 -1 -7 -12 1 -11 -2 -21 -7 -24 -6 -3 -11 14 -13 38 -2 25 1 42 7 42 6 0 11
-7 11 -15 0 -8 4 -15 9 -15 4 0 6 11 3 25 -2 14 -8 25 -13 25 -5 0 -4 9 3 20
12 19 13 19 16 3 2 -10 5 -24 7 -31z m-525 28 c0 -5 -2 -10 -4 -10 -3 0 -8 5
-11 10 -3 6 -1 10 4 10 6 0 11 -4 11 -10z m-112 -37 c-2 -16 -7 -26 -13 -23
-5 3 -9 13 -8 23 3 20 -1 21 -30 5 -20 -10 -21 -10 -8 5 7 10 24 17 38 17 21
0 24 -4 21 -27z m182 1 c0 -2 -9 0 -20 6 -11 6 -20 13 -20 16 0 2 9 0 20 -6
11 -6 20 -13 20 -16z m-226 -19 c-4 -8 -11 -15 -16 -15 -6 0 -5 6 2 15 7 8 14
15 16 15 2 0 1 -7 -2 -15z m161 5 c3 -5 1 -10 -4 -10 -6 0 -11 5 -11 10 0 6 2
10 4 10 3 0 8 -4 11 -10z m35 0 c0 -5 -5 -10 -11 -10 -5 0 -7 5 -4 10 3 6 8
10 11 10 2 0 4 -4 4 -10z m136 -9 c1 -6 0 -8 -2 -3 -3 5 -16 7 -29 4 -15 -2
-25 0 -25 7 0 15 53 8 56 -8z m-186 -11 c13 -8 13 -10 -2 -10 -9 0 -20 5 -23
10 -8 13 5 13 25 0z m973 -14 c4 -11 1 -13 -11 -9 -15 6 -15 5 -3 -10 10 -13
10 -17 1 -17 -10 0 -10 -3 0 -15 7 -8 9 -15 6 -15 -4 0 0 -10 8 -21 13 -19 13
-23 0 -36 -8 -8 -21 -13 -28 -10 -7 3 -18 1 -24 -5 -6 -6 -12 -6 -16 1 -4 6
-2 11 4 11 7 0 5 7 -4 16 -9 8 -20 12 -26 9 -5 -3 -10 -1 -10 4 0 6 6 11 13
11 8 0 24 12 38 27 13 14 19 23 12 19 -6 -3 -17 2 -23 11 -8 15 -9 14 -4 -8 4
-21 1 -27 -15 -32 -11 -2 -22 0 -24 7 -3 6 -4 -7 -4 -29 1 -25 7 -42 17 -47
11 -5 9 -7 -7 -7 -13 -1 -23 -6 -23 -13 0 -6 -3 -9 -6 -5 -3 3 -2 13 4 22 5 9
6 34 2 54 -8 47 15 81 57 81 15 0 35 5 43 10 19 12 17 13 23 -4z m-843 -26
c-8 -5 -19 -10 -25 -10 -5 0 -3 5 5 10 8 5 20 10 25 10 6 0 3 -5 -5 -10z
m-220 -20 c0 -5 -4 -10 -10 -10 -5 0 -10 5 -10 10 0 6 5 10 10 10 6 0 10 -4
10 -10z m237 -13 c10 4 14 2 10 -4 -4 -6 -1 -14 5 -17 7 -3 1 -3 -15 1 -22 4
-26 2 -21 -11 4 -12 2 -15 -9 -11 -12 5 -12 11 -3 30 6 14 12 20 14 15 2 -5
10 -6 19 -3z m478 -9 c3 -3 -7 -7 -23 -10 -18 -3 -29 0 -29 8 0 12 41 13 52 2z
m-695 -8 c0 -5 -2 -10 -4 -10 -3 0 -8 5 -11 10 -3 6 -1 10 4 10 6 0 11 -4 11
-10z m904 -16 c3 -8 2 -12 -4 -9 -6 3 -10 10 -10 16 0 14 7 11 14 -7z m-194
-4 c0 -5 -4 -10 -9 -10 -6 0 -13 5 -16 10 -3 6 1 10 9 10 9 0 16 -4 16 -10z
m-289 -16 c-17 -13 -25 -14 -34 -5 -9 9 -8 11 4 6 10 -4 20 -2 24 4 3 6 11 11
18 11 6 0 1 -7 -12 -16z m-270 -37 c-10 -9 -11 -8 -5 6 3 10 9 15 12 12 3 -3
0 -11 -7 -18z m-26 3 c3 -5 2 -10 -4 -10 -5 0 -13 5 -16 10 -3 6 -2 10 4 10 5
0 13 -4 16 -10z m53 -11 c-9 -5 -24 -17 -33 -26 -13 -13 -19 -13 -25 -4 -4 8
-16 11 -29 6 -16 -5 -20 -3 -15 8 4 11 16 14 43 10 26 -4 41 -1 50 11 8 9 17
14 20 10 3 -3 -2 -10 -11 -15z m327 1 c16 -7 14 -9 -12 -7 -18 1 -33 5 -33 9
0 10 19 9 45 -2z m80 0 c-3 -5 -11 -10 -16 -10 -6 0 -7 5 -4 10 3 6 11 10 16
10 6 0 7 -4 4 -10z m-199 -45 c1 -8 -2 -15 -7 -15 -5 0 -9 10 -9 22 0 23 12
17 16 -7z m-69 9 c-3 -3 -12 -4 -19 -1 -8 3 -5 6 6 6 11 1 17 -2 13 -5z m143
2 c0 -7 -50 -13 -55 -7 -2 4 10 8 26 9 16 1 29 1 29 -2z m169 -22 c-12 -15
-11 -16 8 -10 17 5 21 3 18 -11 -2 -10 -4 -21 -4 -25 -2 -21 -29 -5 -34 19 -6
31 -1 43 15 43 6 0 5 -7 -3 -16z m55 4 c-3 -4 0 -8 5 -8 6 0 11 -5 11 -11 0
-5 -4 -7 -10 -4 -5 3 -10 1 -10 -6 0 -18 -13 -2 -17 20 -1 10 4 18 12 18 8 0
12 -4 9 -9z m326 2 c12 -8 11 -10 -7 -10 -13 0 -23 5 -23 10 0 13 11 13 30 0z
m-262 -14 c12 4 11 2 -3 -7 -25 -15 -35 -30 -29 -41 3 -4 0 -8 -5 -8 -6 0 -11
-8 -11 -17 0 -15 -2 -16 -10 -3 -8 13 -10 12 -10 -4 0 -16 -3 -17 -12 -8 -7 7
-21 12 -32 11 -20 0 -20 -1 2 -11 23 -12 30 -28 11 -28 -6 0 -9 -6 -6 -12 6
-17 -45 -20 -56 -5 -6 8 -7 6 -3 -5 4 -12 0 -18 -12 -19 -13 -1 -14 -2 -2 -5
8 -3 20 -16 27 -30 10 -21 10 -24 -2 -14 -8 7 -15 7 -19 1 -4 -5 -1 -13 5 -17
8 -4 7 -9 -2 -15 -11 -7 -10 -9 4 -9 9 0 17 5 17 12 0 6 3 8 6 5 10 -9 -16
-37 -33 -37 -11 0 -13 7 -9 24 4 18 1 28 -11 35 -13 8 -14 10 -4 11 10 0 7 8
-9 25 l-24 26 22 6 c12 3 22 12 22 19 0 8 5 14 11 14 5 0 7 5 4 10 -3 6 -1 10
5 10 6 0 10 8 8 17 -2 15 5 18 39 19 33 0 48 6 70 30 15 16 29 26 31 22 2 -4
11 -5 20 -2z m-292 -37 c8 -14 -10 -11 -32 6 -18 13 -18 14 4 8 12 -3 25 -9
28 -14z m514 1 c18 -12 2 -12 -25 0 -13 6 -15 9 -5 9 8 0 22 -4 30 -9z m-550
-31 c0 -5 -4 -9 -8 -9 -5 0 -9 7 -9 15 0 8 4 12 9 9 4 -3 8 -9 8 -15z m595 11
c3 -5 1 -10 -4 -10 -6 0 -11 5 -11 10 0 6 2 10 4 10 3 0 8 -4 11 -10z m-219
-15 c-11 -8 -24 -15 -30 -15 -5 0 -1 7 10 15 10 8 24 14 29 14 6 0 1 -6 -9
-14z m69 -13 c-3 -3 -11 0 -18 7 -9 10 -8 11 6 5 10 -3 15 -9 12 -12z m216 1
c13 -16 12 -17 -3 -4 -17 13 -22 21 -14 21 2 0 10 -8 17 -17z m-49 -41 c11
-14 10 -14 -12 1 -27 19 -44 22 -35 7 3 -5 4 -10 1 -10 -3 0 -10 9 -16 20 -9
18 -8 18 19 9 17 -6 36 -18 43 -27z m-547 -26 c7 3 15 2 18 -3 3 -4 -8 -9 -24
-10 -21 -2 -29 2 -29 14 0 13 3 14 11 6 6 -6 17 -9 24 -7z m134 -17 c-9 -17
-13 -19 -20 -8 -7 12 3 22 29 28 1 1 -2 -9 -9 -20z m182 -11 c0 -10 2 -10 6 0
6 16 48 15 62 -2 8 -10 10 -31 4 -68 -4 -29 -9 -45 -11 -35 -2 9 -8 17 -14 17
-6 0 -5 7 3 17 10 12 11 15 1 9 -7 -4 -20 -2 -29 6 -14 11 -16 11 -8 -2 8 -13
6 -13 -8 -1 -9 7 -15 17 -12 21 3 5 1 11 -5 15 -5 3 -10 13 -10 21 0 17 20 19
21 2z m-272 -43 c0 -5 -4 -3 -9 5 -5 8 -9 22 -9 30 0 16 17 -16 18 -35z m102
22 c-10 -9 -11 -8 -5 6 3 10 9 15 12 12 3 -3 0 -11 -7 -18z m293 1 c-5 -8 -1
-7 10 2 16 13 20 12 32 -5 8 -11 12 -26 9 -33 -3 -8 -6 -19 -6 -25 -1 -7 -4 3
-8 21 -6 32 -6 32 -19 11 -8 -11 -9 -18 -3 -14 6 3 11 -1 11 -9 0 -9 -4 -16
-10 -16 -17 0 -11 -27 8 -32 11 -3 18 -16 20 -34 2 -22 -1 -25 -10 -16 -7 7
-20 12 -31 12 -15 0 -18 7 -17 33 3 46 -1 56 -9 27 -4 -14 -4 -37 0 -52 9 -32
-3 -43 -30 -29 -27 15 -33 38 -11 44 13 3 20 18 25 53 9 67 12 74 30 74 10 0
13 -5 9 -12z m-280 -40 c-16 -19 -16 -20 -1 -9 28 22 31 6 3 -22 -21 -21 -25
-22 -28 -9 -5 20 20 62 35 62 5 0 2 -10 -9 -22z m-165 5 c-3 -19 2 -34 9 -29
5 3 9 0 9 -7 0 -7 -17 -12 -41 -13 -36 -1 -38 0 -18 9 13 6 21 16 18 23 -2 7
-2 15 1 18 9 8 23 7 22 -1z m549 -51 c12 -2 22 -8 22 -13 0 -6 -4 -8 -9 -5 -5
3 -11 -5 -13 -19 -6 -29 -5 -30 16 -9 9 8 16 10 16 4 0 -6 -7 -13 -15 -16 -8
-4 -15 -14 -15 -23 -1 -14 -2 -13 -11 2 -6 10 -9 27 -6 38 3 11 0 19 -8 19 -7
0 -15 14 -17 30 -5 36 5 51 12 18 4 -14 14 -24 28 -26z m25 33 c-3 -9 -8 -14
-10 -11 -3 3 -2 9 2 15 9 16 15 13 8 -4z m-338 -24 c-3 -6 -14 -10 -23 -10
-15 1 -15 2 1 6 9 2 17 9 17 15 0 6 3 9 6 5 3 -3 3 -10 -1 -16z m-155 -6 c10
-12 9 -15 -4 -15 -10 0 -15 4 -12 9 4 5 0 12 -6 14 -8 4 -9 6 -2 6 6 1 17 -6
24 -14z m274 -1 c3 -8 2 -12 -4 -9 -6 3 -10 10 -10 16 0 14 7 11 14 -7z m-177
-16 c-3 -8 -6 -5 -6 6 -1 11 2 17 5 13 3 -3 4 -12 1 -19z m35 -17 c-21 -16
-22 -19 -9 -33 10 -10 12 -20 6 -29 -7 -11 -9 -10 -9 6 -1 20 -1 20 -15 1 -8
-11 -15 -15 -15 -10 0 6 5 15 12 22 9 9 9 15 0 24 -7 7 -12 8 -12 2 0 -6 -7
-19 -15 -30 -14 -16 -14 -14 0 14 9 19 19 31 22 28 3 -3 12 1 20 9 8 8 20 15
26 15 7 0 1 -9 -11 -19z m388 9 c0 -5 -2 -10 -4 -10 -3 0 -8 5 -11 10 -3 6 -1
10 4 10 6 0 11 -4 11 -10z m-82 -40 c8 -22 8 -31 -1 -36 -7 -4 -9 -4 -5 1 4 4
4 13 -1 19 -14 18 -21 46 -12 46 5 0 14 -13 19 -30z m-265 13 c3 -5 -5 -8 -18
-8 -13 0 -21 3 -18 8 2 4 10 7 18 7 8 0 16 -3 18 -7z m-193 -7 c0 -3 -4 -8
-10 -11 -5 -3 -10 -1 -10 4 0 6 5 11 10 11 6 0 10 -2 10 -4z m30 0 c0 -3 -4
-8 -10 -11 -5 -3 -10 -1 -10 4 0 6 5 11 10 11 6 0 10 -2 10 -4z m215 -5 c-9
-8 -36 -10 -30 -2 2 4 11 8 20 8 8 0 13 -3 10 -6z m156 -25 c-7 -8 -8 -16 -4
-18 4 -3 2 -3 -5 -1 -8 1 -12 -3 -9 -9 2 -7 9 -12 15 -11 14 3 4 -25 -20 -56
-22 -29 -24 -19 -2 14 12 18 13 29 6 38 -15 17 -4 57 15 57 12 0 13 -3 4 -14z
m119 4 c0 -5 -5 -10 -11 -10 -5 0 -7 5 -4 10 3 6 8 10 11 10 2 0 4 -4 4 -10z
m-196 -26 c3 -8 2 -12 -4 -9 -6 3 -10 10 -10 16 0 14 7 11 14 -7z m-219 -4 c3
-5 1 -10 -4 -10 -6 0 -11 5 -11 10 0 6 2 10 4 10 3 0 8 -4 11 -10z m429 2 c2
-4 0 -14 -6 -22 -8 -12 -9 -12 -4 3 4 12 0 17 -13 17 -11 0 -22 -6 -24 -12 -3
-8 -6 -6 -6 5 -1 12 7 17 23 17 14 0 27 -4 30 -8z m-529 -12 c3 -6 -4 -10 -17
-10 -18 0 -20 2 -8 10 19 12 18 12 25 0z m65 0 c0 -5 -2 -10 -4 -10 -3 0 -8 5
-11 10 -3 6 -1 10 4 10 6 0 11 -4 11 -10z m53 -27 c-7 -2 -19 -2 -25 0 -7 3
-2 5 12 5 14 0 19 -2 13 -5z m342 -16 l30 -4 -31 -2 c-20 0 -37 6 -45 17 -12
15 -12 15 1 5 8 -6 29 -13 45 -16z m-348 -13 c-3 -3 -12 -4 -19 -1 -8 3 -5 6
6 6 11 1 17 -2 13 -5z m18 -44 c3 -5 1 -10 -4 -10 -6 0 -11 5 -11 10 0 6 2 10
4 10 3 0 8 -4 11 -10z m125 0 c0 -5 -5 -10 -11 -10 -5 0 -7 5 -4 10 3 6 8 10
11 10 2 0 4 -4 4 -10z m195 -31 c-4 -6 2 -17 14 -25 12 -8 21 -23 20 -32 0
-14 -2 -14 -6 -2 -9 22 -51 59 -59 51 -4 -3 -4 0 0 7 4 6 14 12 22 12 8 0 12
-5 9 -11z m43 -8 c3 -8 -1 -12 -9 -9 -7 2 -15 10 -17 17 -3 8 1 12 9 9 7 -2
15 -10 17 -17z m-68 -21 c0 -5 -2 -10 -4 -10 -3 0 -8 5 -11 10 -3 6 -1 10 4
10 6 0 11 -4 11 -10z m104 -15 c-4 -8 -11 -15 -16 -15 -6 0 -5 6 2 15 7 8 14
15 16 15 2 0 1 -7 -2 -15z m-421 -25 c-3 -12 -8 -19 -11 -16 -5 6 5 36 12 36
2 0 2 -9 -1 -20z m349 -12 c-7 -7 -12 -20 -12 -29 0 -9 -7 -22 -15 -29 -12
-10 -15 -10 -15 1 0 11 -3 11 -11 -1 -9 -13 -10 -12 -5 2 3 10 -2 24 -10 33
-9 8 -11 15 -6 15 5 0 16 -10 25 -22 15 -23 15 -23 23 -3 8 23 24 45 32 45 3
0 1 -5 -6 -12z m52 -4 c3 -8 2 -12 -4 -9 -6 3 -10 10 -10 16 0 14 7 11 14 -7z
m-331 -33 c10 -11 8 -11 -10 -2 -12 6 -24 7 -27 2 -5 -7 -21 -8 -61 -2 -5 1
-3 5 5 11 20 12 78 7 93 -9z m337 -1 c0 -5 -4 -10 -10 -10 -5 0 -10 5 -10 10
0 6 5 10 10 10 6 0 10 -4 10 -10z m-286 -34 c31 -5 36 -18 14 -38 -16 -13 -18
-18 -6 -14 9 2 19 -2 22 -10 3 -9 11 -12 18 -8 10 5 10 4 1 -6 -6 -7 -9 -19
-6 -26 4 -10 0 -12 -11 -8 -9 3 -23 0 -32 -7 -12 -10 -15 -10 -12 2 2 8 10 19
18 26 12 10 8 12 -24 13 -22 0 -36 3 -33 6 3 4 2 16 -4 27 -8 14 -8 18 0 13 6
-4 11 -2 11 4 0 6 5 8 10 5 16 -10 12 2 -7 21 -16 16 -16 16 6 9 13 -4 29 -8
35 -9z m257 -9 c-10 -9 -11 -8 -5 6 3 10 9 15 12 12 3 -3 0 -11 -7 -18z m-141
-84 c0 -3 -7 -3 -15 1 -8 3 -15 1 -15 -3 0 -5 6 -12 13 -14 9 -4 9 -6 0 -6
-15 -1 -26 16 -18 29 5 9 35 3 35 -7z m192 -13 c-4 -3 -11 -9 -15 -15 -5 -6
-7 -3 -4 6 3 9 0 22 -6 29 -8 9 -5 8 10 -1 12 -7 19 -16 15 -19z m-72 10 c8
-5 11 -10 5 -10 -5 0 -17 5 -25 10 -8 5 -10 10 -5 10 6 0 17 -5 25 -10z m-90
-10 c-8 -5 -19 -10 -25 -10 -5 0 -3 5 5 10 8 5 20 10 25 10 6 0 3 -5 -5 -10z
m46 -20 c0 -11 -4 -20 -8 -20 -10 0 -11 24 -1 33 9 9 9 10 9 -13z m-166 0 c0
-5 -2 -10 -4 -10 -3 0 -8 5 -11 10 -3 6 -1 10 4 10 6 0 11 -4 11 -10z"/>
<path d="M1899 1983 c-13 -15 -12 -15 9 -4 23 12 28 21 13 21 -5 0 -15 -7 -22
-17z"/>
<path d="M1680 1870 c0 -5 5 -10 11 -10 5 0 7 5 4 10 -3 6 -8 10 -11 10 -2 0
-4 -4 -4 -10z"/>
<path d="M1852 1794 c-13 -6 -20 -14 -14 -18 10 -6 50 19 42 27 -3 2 -16 -2
-28 -9z"/>
<path d="M2250 1440 c0 -5 5 -10 11 -10 5 0 7 5 4 10 -3 6 -8 10 -11 10 -2 0
-4 -4 -4 -10z"/>
<path d="M2666 1422 c-2 -4 4 -9 15 -9 11 -1 17 2 14 8 -7 11 -22 12 -29 1z"/>
<path d="M2743 1378 c4 -26 28 -31 34 -8 4 13 3 13 -6 0 -9 -13 -11 -13 -11 2
0 9 -5 20 -10 23 -6 4 -9 -3 -7 -17z"/>
<path d="M2640 1015 c0 -8 4 -15 10 -15 5 0 7 7 4 15 -4 8 -8 15 -10 15 -2 0
-4 -7 -4 -15z"/>
<path d="M2607 923 c-3 -5 1 -14 8 -20 11 -10 13 -9 12 7 -1 20 -12 26 -20 13z"/>
<path d="M2515 540 c-3 -5 -1 -10 4 -10 6 0 11 5 11 10 0 6 -2 10 -4 10 -3 0
-8 -4 -11 -10z"/>
<path d="M2470 510 c0 -5 5 -10 10 -10 6 0 10 5 10 10 0 6 -4 10 -10 10 -5 0
-10 -4 -10 -10z"/>
<path d="M1494 2395 c-3 -8 -4 -20 -1 -27 3 -7 6 -3 6 9 1 12 7 24 14 26 9 4
9 6 -1 6 -7 1 -15 -6 -18 -14z"/>
<path d="M1533 2380 c-3 -11 -9 -17 -14 -14 -5 3 -6 -2 -3 -10 9 -22 29 -9 29
19 0 30 -5 32 -12 5z"/>
<path d="M1681 2374 c0 -11 3 -14 6 -6 3 7 2 16 -1 19 -3 4 -6 -2 -5 -13z"/>
<path d="M1293 2325 c0 -14 3 -25 8 -25 5 0 9 11 9 25 0 14 -4 25 -9 25 -5 0
-8 -11 -8 -25z"/>
<path d="M1496 2337 c3 -10 9 -15 12 -12 3 3 0 11 -7 18 -10 9 -11 8 -5 -6z"/>
<path d="M1410 2315 c0 -8 4 -15 10 -15 5 0 7 7 4 15 -4 8 -8 15 -10 15 -2 0
-4 -7 -4 -15z"/>
<path d="M1222 2250 c0 -14 2 -19 5 -12 2 6 2 18 0 25 -3 6 -5 1 -5 -13z"/>
<path d="M1200 2180 c0 -11 4 -20 9 -20 5 0 7 9 4 20 -3 11 -7 20 -9 20 -2 0
-4 -9 -4 -20z"/>
<path d="M1465 2190 c-3 -5 1 -10 10 -10 9 0 13 5 10 10 -3 6 -8 10 -10 10 -2
0 -7 -4 -10 -10z"/>
<path d="M1255 2150 c-3 -5 -3 -14 0 -20 3 -5 1 -10 -4 -10 -6 0 -11 4 -11 9
0 5 -9 11 -20 14 -15 4 -20 0 -21 -16 -1 -12 -2 -26 -4 -32 -1 -5 -3 -14 -4
-20 -1 -5 -8 -2 -15 8 -9 12 -16 14 -21 7 -8 -12 55 -93 91 -117 13 -8 24 -22
24 -30 0 -7 12 -26 26 -41 23 -24 25 -24 15 -4 -7 12 -9 22 -5 22 3 0 1 6 -5
14 -8 9 -8 21 -2 39 8 21 6 31 -10 49 -10 13 -18 17 -17 9 2 -7 -2 -15 -8 -18
-6 -2 -11 9 -12 27 0 17 5 30 11 30 8 0 8 3 -1 9 -19 11 -17 19 8 41 12 11 19
24 15 29 -8 14 -22 14 -30 1z"/>
<path d="M1860 2130 c-8 -5 -12 -11 -10 -14 3 -2 14 2 24 10 22 15 10 19 -14
4z"/>
<path d="M1912 2096 c4 -5 2 -18 -4 -30 -11 -20 -10 -20 8 -6 10 8 20 15 22
16 1 1 -6 7 -15 15 -10 7 -15 10 -11 5z"/>
<path d="M2730 2041 c0 -5 5 -13 10 -16 6 -3 10 -2 10 4 0 5 -4 13 -10 16 -5
3 -10 2 -10 -4z"/>
<path d="M1696 2021 c-4 -5 3 -7 14 -4 23 6 26 13 6 13 -8 0 -17 -4 -20 -9z"/>
<path d="M1425 1990 c3 -5 11 -10 16 -10 6 0 7 5 4 10 -3 6 -11 10 -16 10 -6
0 -7 -4 -4 -10z"/>
<path d="M1317 1929 c4 -13 8 -18 11 -10 2 7 -1 18 -6 23 -8 8 -9 4 -5 -13z"/>
<path d="M2171 1774 c0 -11 3 -14 6 -6 3 7 2 16 -1 19 -3 4 -6 -2 -5 -13z"/>
<path d="M2190 1750 c0 -5 5 -10 11 -10 5 0 7 5 4 10 -3 6 -8 10 -11 10 -2 0
-4 -4 -4 -10z"/>
<path d="M2130 1728 c0 -7 11 -13 24 -13 18 0 22 3 14 13 -6 6 -17 12 -24 12
-8 0 -14 -6 -14 -12z"/>
<path d="M2750 1735 c0 -2 10 -10 23 -16 20 -11 21 -11 8 4 -13 16 -31 23 -31
12z"/>
<path d="M893 1663 c-7 -2 -13 -12 -14 -21 0 -11 -2 -12 -6 -4 -2 6 -9 12 -14
12 -6 0 -7 -5 -3 -11 3 -6 2 -14 -4 -18 -6 -3 -1 -13 12 -23 22 -16 22 -15 21
5 -4 40 9 54 16 17 l6 -35 2 43 c0 23 0 42 -1 41 -2 0 -9 -3 -15 -6z"/>
<path d="M900 1536 c0 -39 -3 -47 -15 -42 -9 3 -15 0 -15 -10 0 -10 6 -14 14
-11 9 4 13 1 11 -6 -11 -31 -13 -67 -3 -67 5 0 8 -7 4 -15 -3 -8 -1 -15 4 -15
12 0 13 5 11 115 -2 93 -11 135 -11 51z"/>
<path d="M865 1560 c3 -5 10 -10 16 -10 5 0 9 5 9 10 0 6 -7 10 -16 10 -8 0
-12 -4 -9 -10z"/>
<path d="M786 1542 c-3 -5 1 -15 8 -21 11 -10 14 -9 12 3 -3 21 -13 29 -20 18z"/>
<path d="M815 1490 c-3 -5 -1 -10 4 -10 6 0 11 5 11 10 0 6 -2 10 -4 10 -3 0
-8 -4 -11 -10z"/>
<path d="M895 1351 c-3 -6 -11 -9 -16 -6 -5 4 -9 -6 -9 -21 0 -24 8 -34 9 -11
0 5 8 15 18 22 10 7 15 16 11 20 -3 3 -9 1 -13 -4z"/>
<path d="M1864 1219 c-3 -6 0 -18 9 -26 10 -10 17 -12 22 -4 4 7 1 10 -7 9 -8
-2 -12 4 -10 15 3 19 -3 22 -14 6z"/>
<path d="M1917 1157 c-3 -7 4 -24 14 -38 18 -22 20 -23 32 -7 11 14 16 15 27
5 10 -10 10 -8 -1 10 -10 17 -17 19 -35 12 -18 -6 -22 -5 -18 5 3 8 1 17 -4
20 -6 3 -12 0 -15 -7z"/>
<path d="M2004 1138 c-3 -4 4 -8 15 -8 11 0 22 4 25 8 2 4 -4 8 -15 8 -11 0
-23 -4 -25 -8z"/>
<path d="M2086 1142 c-7 -12 4 -52 15 -52 12 0 12 47 0 55 -5 3 -12 2 -15 -3z"/>
<path d="M2028 1109 c-24 -13 -23 -24 5 -50 12 -12 17 -19 10 -15 -6 3 -15 2
-18 -4 -5 -8 -12 -7 -23 2 -16 12 -16 11 -2 -7 8 -11 23 -30 34 -43 l20 -23
23 38 c13 21 23 47 23 58 -1 15 -4 12 -14 -11 -8 -18 -19 -35 -25 -38 -6 -4
-8 -13 -5 -19 5 -9 3 -9 -6 0 -11 10 -11 15 0 28 10 12 10 18 -1 31 -11 14
-10 18 6 30 18 14 18 14 -1 14 -16 0 -17 2 -4 10 20 13 0 12 -22 -1z m12 -13
c0 -3 -4 -8 -10 -11 -5 -3 -10 -1 -10 4 0 6 5 11 10 11 6 0 10 -2 10 -4z"/>
<path d="M1966 1078 c3 -5 10 -6 15 -3 13 9 11 12 -6 12 -8 0 -12 -4 -9 -9z"/>
<path d="M2460 700 c0 -8 -9 -10 -26 -6 -16 4 -23 3 -20 -3 4 -5 24 -9 46 -8
21 1 38 2 37 2 -1 0 -10 7 -19 14 -14 10 -18 10 -18 1z"/>
<path d="M2295 681 c-6 -11 13 -26 22 -17 4 3 1 6 -6 6 -7 0 -9 5 -6 10 3 6 4
10 1 10 -3 0 -7 -4 -11 -9z"/>
<path d="M2481 654 c0 -11 3 -14 6 -6 3 7 2 16 -1 19 -3 4 -6 -2 -5 -13z"/>
<path d="M2522 661 c-8 -5 -12 -17 -9 -27 4 -17 6 -17 12 3 4 13 12 20 17 17
5 -3 7 -13 4 -23 -5 -13 -3 -12 8 3 8 10 19 15 25 11 6 -3 11 -1 11 4 0 6 -6
11 -14 11 -8 0 -20 2 -28 5 -7 3 -19 1 -26 -4z"/>
<path d="M2325 641 c-3 -5 -1 -12 5 -16 5 -3 10 1 10 9 0 18 -6 21 -15 7z"/>
<path d="M432 566 c7 -8 15 -12 17 -11 5 6 -10 25 -20 25 -5 0 -4 -6 3 -14z"/>
<path d="M272 536 c7 -8 17 -12 22 -9 4 3 2 9 -5 14 -22 13 -31 11 -17 -5z"/>
<path d="M1271 474 c0 -11 3 -14 6 -6 3 7 2 16 -1 19 -3 4 -6 -2 -5 -13z"/>
<path d="M939 458 c-1 -7 -1 -18 0 -25 1 -6 -6 -14 -16 -16 -10 -3 8 -5 40 -6
34 -1 56 3 52 8 -7 13 12 24 26 15 8 -4 7 -9 -2 -15 -10 -6 -10 -9 -2 -9 20 0
25 19 9 36 -9 8 -16 12 -16 7 0 -4 -5 -1 -10 7 -8 13 -12 13 -32 1 -16 -10
-23 -10 -26 -2 -5 15 -22 14 -23 -1z m51 -18 c-24 -15 -36 -11 -14 4 10 8 21
12 24 10 2 -3 -2 -9 -10 -14z"/>
<path d="M875 420 c-3 -5 1 -10 9 -10 9 0 16 5 16 10 0 6 -4 10 -9 10 -6 0
-13 -4 -16 -10z"/>
</g>
</svg>
